<svg width="179" height="28" viewBox="0 0 179 28" fill="none" xmlns="http://www.w3.org/2000/svg">
<path d="M7.125 3.45C8.975 3.45 10.5917 3.81667 11.975 4.55C13.3583 5.28333 14.425 6.31667 15.175 7.65C15.9417 8.96667 16.325 10.4917 16.325 12.225C16.325 13.9417 15.9417 15.4667 15.175 16.8C14.425 18.1333 13.35 19.1667 11.95 19.9C10.5667 20.6333 8.95833 21 7.125 21H0.55V3.45H7.125ZM6.85 17.3C8.46667 17.3 9.725 16.8583 10.625 15.975C11.525 15.0917 11.975 13.8417 11.975 12.225C11.975 10.6083 11.525 9.35 10.625 8.45C9.725 7.55 8.46667 7.1 6.85 7.1H4.825V17.3H6.85ZM31.8641 13.8C31.8641 14.2 31.8391 14.6167 31.7891 15.05H22.1141C22.1807 15.9167 22.4557 16.5833 22.9391 17.05C23.4391 17.5 24.0474 17.725 24.7641 17.725C25.8307 17.725 26.5724 17.275 26.9891 16.375H31.5391C31.3057 17.2917 30.8807 18.1167 30.2641 18.85C29.6641 19.5833 28.9057 20.1583 27.9891 20.575C27.0724 20.9917 26.0474 21.2 24.9141 21.2C23.5474 21.2 22.3307 20.9083 21.2641 20.325C20.1974 19.7417 19.3641 18.9083 18.7641 17.825C18.1641 16.7417 17.8641 15.475 17.8641 14.025C17.8641 12.575 18.1557 11.3083 18.7391 10.225C19.3391 9.14167 20.1724 8.30833 21.2391 7.725C22.3057 7.14167 23.5307 6.85 24.9141 6.85C26.2641 6.85 27.4641 7.13333 28.5141 7.7C29.5641 8.26667 30.3807 9.075 30.9641 10.125C31.5641 11.175 31.8641 12.4 31.8641 13.8ZM27.4891 12.675C27.4891 11.9417 27.2391 11.3583 26.7391 10.925C26.2391 10.4917 25.6141 10.275 24.8641 10.275C24.1474 10.275 23.5391 10.4833 23.0391 10.9C22.5557 11.3167 22.2557 11.9083 22.1391 12.675H27.4891ZM39.7943 21.2C38.5777 21.2 37.4943 20.9917 36.5443 20.575C35.5943 20.1583 34.8443 19.5917 34.2943 18.875C33.7443 18.1417 33.436 17.325 33.3693 16.425H37.5943C37.6443 16.9083 37.8693 17.3 38.2693 17.6C38.6693 17.9 39.161 18.05 39.7443 18.05C40.2777 18.05 40.686 17.95 40.9693 17.75C41.2693 17.5333 41.4193 17.2583 41.4193 16.925C41.4193 16.525 41.211 16.2333 40.7943 16.05C40.3777 15.85 39.7027 15.6333 38.7693 15.4C37.7693 15.1667 36.936 14.925 36.2693 14.675C35.6027 14.4083 35.0277 14 34.5443 13.45C34.061 12.8833 33.8193 12.125 33.8193 11.175C33.8193 10.375 34.036 9.65 34.4693 9C34.9193 8.33333 35.5693 7.80833 36.4193 7.425C37.286 7.04167 38.311 6.85 39.4943 6.85C41.2443 6.85 42.6193 7.28333 43.6193 8.15C44.636 9.01667 45.2193 10.1667 45.3693 11.6H41.4193C41.3527 11.1167 41.136 10.7333 40.7693 10.45C40.4193 10.1667 39.9527 10.025 39.3693 10.025C38.8693 10.025 38.486 10.125 38.2193 10.325C37.9527 10.5083 37.8193 10.7667 37.8193 11.1C37.8193 11.5 38.0277 11.8 38.4443 12C38.8777 12.2 39.5443 12.4 40.4443 12.6C41.4777 12.8667 42.3193 13.1333 42.9693 13.4C43.6193 13.65 44.186 14.0667 44.6693 14.65C45.1693 15.2167 45.4277 15.9833 45.4443 16.95C45.4443 17.7667 45.211 18.5 44.7443 19.15C44.2943 19.7833 43.636 20.2833 42.7693 20.65C41.9193 21.0167 40.9277 21.2 39.7943 21.2ZM50.2098 5.6C49.4598 5.6 48.8431 5.38333 48.3598 4.95C47.8931 4.5 47.6598 3.95 47.6598 3.3C47.6598 2.63333 47.8931 2.08333 48.3598 1.65C48.8431 1.2 49.4598 0.974999 50.2098 0.974999C50.9431 0.974999 51.5431 1.2 52.0098 1.65C52.4931 2.08333 52.7348 2.63333 52.7348 3.3C52.7348 3.95 52.4931 4.5 52.0098 4.95C51.5431 5.38333 50.9431 5.6 50.2098 5.6ZM52.3348 7.05V21H48.0598V7.05H52.3348ZM60.7328 6.85C61.7161 6.85 62.5745 7.05 63.3078 7.45C64.0578 7.85 64.6328 8.375 65.0328 9.025V7.05H69.3078V20.975C69.3078 22.2583 69.0495 23.4167 68.5328 24.45C68.0328 25.5 67.2578 26.3333 66.2078 26.95C65.1745 27.5667 63.8828 27.875 62.3328 27.875C60.2661 27.875 58.5911 27.3833 57.3078 26.4C56.0245 25.4333 55.2911 24.1167 55.1078 22.45H59.3328C59.4661 22.9833 59.7828 23.4 60.2828 23.7C60.7828 24.0167 61.3995 24.175 62.1328 24.175C63.0161 24.175 63.7161 23.9167 64.2328 23.4C64.7661 22.9 65.0328 22.0917 65.0328 20.975V19C64.6161 19.65 64.0411 20.1833 63.3078 20.6C62.5745 21 61.7161 21.2 60.7328 21.2C59.5828 21.2 58.5411 20.9083 57.6078 20.325C56.6745 19.725 55.9328 18.8833 55.3828 17.8C54.8495 16.7 54.5828 15.4333 54.5828 14C54.5828 12.5667 54.8495 11.3083 55.3828 10.225C55.9328 9.14167 56.6745 8.30833 57.6078 7.725C58.5411 7.14167 59.5828 6.85 60.7328 6.85ZM65.0328 14.025C65.0328 12.9583 64.7328 12.1167 64.1328 11.5C63.5495 10.8833 62.8328 10.575 61.9828 10.575C61.1328 10.575 60.4078 10.8833 59.8078 11.5C59.2245 12.1 58.9328 12.9333 58.9328 14C58.9328 15.0667 59.2245 15.9167 59.8078 16.55C60.4078 17.1667 61.1328 17.475 61.9828 17.475C62.8328 17.475 63.5495 17.1667 64.1328 16.55C64.7328 15.9333 65.0328 15.0917 65.0328 14.025ZM80.9006 6.9C82.5339 6.9 83.8339 7.43333 84.8006 8.5C85.7839 9.55 86.2756 11 86.2756 12.85V21H82.0256V13.425C82.0256 12.4917 81.7839 11.7667 81.3006 11.25C80.8173 10.7333 80.1673 10.475 79.3506 10.475C78.5339 10.475 77.8839 10.7333 77.4006 11.25C76.9173 11.7667 76.6756 12.4917 76.6756 13.425V21H72.4006V7.05H76.6756V8.9C77.1089 8.28333 77.6923 7.8 78.4256 7.45C79.1589 7.08333 79.9839 6.9 80.9006 6.9ZM88.5213 12.2C88.5213 10.4667 88.8963 8.925 89.6463 7.575C90.3963 6.20833 91.438 5.15 92.7713 4.4C94.1213 3.63333 95.6463 3.25 97.3463 3.25C99.4296 3.25 101.213 3.8 102.696 4.9C104.18 6 105.171 7.5 105.671 9.4H100.971C100.621 8.66667 100.121 8.10833 99.4713 7.725C98.838 7.34167 98.113 7.15 97.2963 7.15C95.9796 7.15 94.913 7.60833 94.0963 8.525C93.2796 9.44167 92.8713 10.6667 92.8713 12.2C92.8713 13.7333 93.2796 14.9583 94.0963 15.875C94.913 16.7917 95.9796 17.25 97.2963 17.25C98.113 17.25 98.838 17.0583 99.4713 16.675C100.121 16.2917 100.621 15.7333 100.971 15H105.671C105.171 16.9 104.18 18.4 102.696 19.5C101.213 20.5833 99.4296 21.125 97.3463 21.125C95.6463 21.125 94.1213 20.75 92.7713 20C91.438 19.2333 90.3963 18.175 89.6463 16.825C88.8963 15.475 88.5213 13.9333 88.5213 12.2ZM114.639 21.2C113.273 21.2 112.039 20.9083 110.939 20.325C109.856 19.7417 108.998 18.9083 108.364 17.825C107.748 16.7417 107.439 15.475 107.439 14.025C107.439 12.5917 107.756 11.3333 108.389 10.25C109.023 9.15 109.889 8.30833 110.989 7.725C112.089 7.14167 113.323 6.85 114.689 6.85C116.056 6.85 117.289 7.14167 118.389 7.725C119.489 8.30833 120.356 9.15 120.989 10.25C121.623 11.3333 121.939 12.5917 121.939 14.025C121.939 15.4583 121.614 16.725 120.964 17.825C120.331 18.9083 119.456 19.7417 118.339 20.325C117.239 20.9083 116.006 21.2 114.639 21.2ZM114.639 17.5C115.456 17.5 116.148 17.2 116.714 16.6C117.298 16 117.589 15.1417 117.589 14.025C117.589 12.9083 117.306 12.05 116.739 11.45C116.189 10.85 115.506 10.55 114.689 10.55C113.856 10.55 113.164 10.85 112.614 11.45C112.064 12.0333 111.789 12.8917 111.789 14.025C111.789 15.1417 112.056 16 112.589 16.6C113.139 17.2 113.823 17.5 114.639 17.5ZM137.982 7.05V21H133.707V19.1C133.274 19.7167 132.682 20.2167 131.932 20.6C131.199 20.9667 130.382 21.15 129.482 21.15C128.416 21.15 127.474 20.9167 126.657 20.45C125.841 19.9667 125.207 19.275 124.757 18.375C124.307 17.475 124.082 16.4167 124.082 15.2V7.05H128.332V14.625C128.332 15.5583 128.574 16.2833 129.057 16.8C129.541 17.3167 130.191 17.575 131.007 17.575C131.841 17.575 132.499 17.3167 132.982 16.8C133.466 16.2833 133.707 15.5583 133.707 14.625V7.05H137.982ZM145.328 9.375C145.828 8.60833 146.453 8.00833 147.203 7.575C147.953 7.125 148.786 6.9 149.703 6.9V11.425H148.528C147.461 11.425 146.661 11.6583 146.128 12.125C145.595 12.575 145.328 13.375 145.328 14.525V21H141.053V7.05H145.328V9.375ZM157.421 21.2C156.205 21.2 155.121 20.9917 154.171 20.575C153.221 20.1583 152.471 19.5917 151.921 18.875C151.371 18.1417 151.063 17.325 150.996 16.425H155.221C155.271 16.9083 155.496 17.3 155.896 17.6C156.296 17.9 156.788 18.05 157.371 18.05C157.905 18.05 158.313 17.95 158.596 17.75C158.896 17.5333 159.046 17.2583 159.046 16.925C159.046 16.525 158.838 16.2333 158.421 16.05C158.005 15.85 157.33 15.6333 156.396 15.4C155.396 15.1667 154.563 14.925 153.896 14.675C153.23 14.4083 152.655 14 152.171 13.45C151.688 12.8833 151.446 12.125 151.446 11.175C151.446 10.375 151.663 9.65 152.096 9C152.546 8.33333 153.196 7.80833 154.046 7.425C154.913 7.04167 155.938 6.85 157.121 6.85C158.871 6.85 160.246 7.28333 161.246 8.15C162.263 9.01667 162.846 10.1667 162.996 11.6H159.046C158.98 11.1167 158.763 10.7333 158.396 10.45C158.046 10.1667 157.58 10.025 156.996 10.025C156.496 10.025 156.113 10.125 155.846 10.325C155.58 10.5083 155.446 10.7667 155.446 11.1C155.446 11.5 155.655 11.8 156.071 12C156.505 12.2 157.171 12.4 158.071 12.6C159.105 12.8667 159.946 13.1333 160.596 13.4C161.246 13.65 161.813 14.0667 162.296 14.65C162.796 15.2167 163.055 15.9833 163.071 16.95C163.071 17.7667 162.838 18.5 162.371 19.15C161.921 19.7833 161.263 20.2833 160.396 20.65C159.546 21.0167 158.555 21.2 157.421 21.2ZM178.837 13.8C178.837 14.2 178.812 14.6167 178.762 15.05H169.087C169.153 15.9167 169.428 16.5833 169.912 17.05C170.412 17.5 171.02 17.725 171.737 17.725C172.803 17.725 173.545 17.275 173.962 16.375H178.512C178.278 17.2917 177.853 18.1167 177.237 18.85C176.637 19.5833 175.878 20.1583 174.962 20.575C174.045 20.9917 173.02 21.2 171.887 21.2C170.52 21.2 169.303 20.9083 168.237 20.325C167.17 19.7417 166.337 18.9083 165.737 17.825C165.137 16.7417 164.837 15.475 164.837 14.025C164.837 12.575 165.128 11.3083 165.712 10.225C166.312 9.14167 167.145 8.30833 168.212 7.725C169.278 7.14167 170.503 6.85 171.887 6.85C173.237 6.85 174.437 7.13333 175.487 7.7C176.537 8.26667 177.353 9.075 177.937 10.125C178.537 11.175 178.837 12.4 178.837 13.8ZM174.462 12.675C174.462 11.9417 174.212 11.3583 173.712 10.925C173.212 10.4917 172.587 10.275 171.837 10.275C171.12 10.275 170.512 10.4833 170.012 10.9C169.528 11.3167 169.228 11.9083 169.112 12.675H174.462Z" fill="#0078E7"/>
</svg>
