<svg width="217" height="62" viewBox="0 0 217 62" fill="none" xmlns="http://www.w3.org/2000/svg">
<g filter="url(#filter0_d_1_4067)">
<rect x="1" y="1" width="213" height="58" rx="29" fill="#0078E7" shape-rendering="crispEdges"/>
<path d="M59.06 27.4C58.8067 26.9333 58.44 26.58 57.96 26.34C57.4933 26.0867 56.94 25.96 56.3 25.96C55.1933 25.96 54.3067 26.3267 53.64 27.06C52.9733 27.78 52.64 28.7467 52.64 29.96C52.64 31.2533 52.9867 32.2667 53.68 33C54.3867 33.72 55.3533 34.08 56.58 34.08C57.42 34.08 58.1267 33.8667 58.7 33.44C59.2867 33.0133 59.7133 32.4 59.98 31.6H55.64V29.08H63.08V32.26C62.8267 33.1133 62.3933 33.9067 61.78 34.64C61.18 35.3733 60.4133 35.9667 59.48 36.42C58.5467 36.8733 57.4933 37.1 56.32 37.1C54.9333 37.1 53.6933 36.8 52.6 36.2C51.52 35.5867 50.6733 34.74 50.06 33.66C49.46 32.58 49.16 31.3467 49.16 29.96C49.16 28.5733 49.46 27.34 50.06 26.26C50.6733 25.1667 51.52 24.32 52.6 23.72C53.68 23.1067 54.9133 22.8 56.3 22.8C57.98 22.8 59.3933 23.2067 60.54 24.02C61.7 24.8333 62.4667 25.96 62.84 27.4H59.06ZM75.4944 31.24C75.4944 31.56 75.4744 31.8933 75.4344 32.24H67.6944C67.7477 32.9333 67.9677 33.4667 68.3544 33.84C68.7544 34.2 69.241 34.38 69.8144 34.38C70.6677 34.38 71.261 34.02 71.5944 33.3H75.2344C75.0477 34.0333 74.7077 34.6933 74.2144 35.28C73.7344 35.8667 73.1277 36.3267 72.3944 36.66C71.661 36.9933 70.841 37.16 69.9344 37.16C68.841 37.16 67.8677 36.9267 67.0144 36.46C66.161 35.9933 65.4944 35.3267 65.0144 34.46C64.5344 33.5933 64.2944 32.58 64.2944 31.42C64.2944 30.26 64.5277 29.2467 64.9944 28.38C65.4744 27.5133 66.141 26.8467 66.9944 26.38C67.8477 25.9133 68.8277 25.68 69.9344 25.68C71.0144 25.68 71.9744 25.9067 72.8144 26.36C73.6544 26.8133 74.3077 27.46 74.7744 28.3C75.2544 29.14 75.4944 30.12 75.4944 31.24ZM71.9944 30.34C71.9944 29.7533 71.7944 29.2867 71.3944 28.94C70.9944 28.5933 70.4944 28.42 69.8944 28.42C69.321 28.42 68.8344 28.5867 68.4344 28.92C68.0477 29.2533 67.8077 29.7267 67.7144 30.34H71.9944ZM83.5186 34.1V37H81.7786C80.5386 37 79.5719 36.7 78.8786 36.1C78.1853 35.4867 77.8386 34.4933 77.8386 33.12V28.68H76.4786V25.84H77.8386V23.12H81.2586V25.84H83.4986V28.68H81.2586V33.16C81.2586 33.4933 81.3386 33.7333 81.4986 33.88C81.6586 34.0267 81.9253 34.1 82.2986 34.1H83.5186ZM88.9819 31.4C88.9819 30.2533 89.1952 29.2467 89.6219 28.38C90.0619 27.5133 90.6552 26.8467 91.4019 26.38C92.1485 25.9133 92.9819 25.68 93.9019 25.68C94.6885 25.68 95.3752 25.84 95.9619 26.16C96.5619 26.48 97.0219 26.9 97.3419 27.42V25.84H100.762V37H97.3419V35.42C97.0085 35.94 96.5419 36.36 95.9419 36.68C95.3552 37 94.6685 37.16 93.8819 37.16C92.9752 37.16 92.1485 36.9267 91.4019 36.46C90.6552 35.98 90.0619 35.3067 89.6219 34.44C89.1952 33.56 88.9819 32.5467 88.9819 31.4ZM97.3419 31.42C97.3419 30.5667 97.1019 29.8933 96.6219 29.4C96.1552 28.9067 95.5819 28.66 94.9019 28.66C94.2219 28.66 93.6419 28.9067 93.1619 29.4C92.6952 29.88 92.4619 30.5467 92.4619 31.4C92.4619 32.2533 92.6952 32.9333 93.1619 33.44C93.6419 33.9333 94.2219 34.18 94.9019 34.18C95.5819 34.18 96.1552 33.9333 96.6219 33.44C97.1019 32.9467 97.3419 32.2733 97.3419 31.42ZM106.794 31.44C106.794 30.3333 107.021 29.3467 107.474 28.48C107.941 27.6133 108.561 26.94 109.334 26.46C110.121 25.9667 110.974 25.72 111.894 25.72C112.601 25.72 113.234 25.8467 113.794 26.1C114.354 26.34 114.808 26.68 115.154 27.12V25.84H118.574V42.32H115.154V35.6C114.768 36.0667 114.294 36.44 113.734 36.72C113.188 37 112.561 37.14 111.854 37.14C110.948 37.14 110.108 36.9 109.334 36.42C108.561 35.94 107.941 35.2667 107.474 34.4C107.021 33.5333 106.794 32.5467 106.794 31.44ZM115.154 31.42C115.154 30.82 115.034 30.32 114.794 29.92C114.568 29.5067 114.268 29.2 113.894 29C113.521 28.7867 113.128 28.68 112.714 28.68C112.314 28.68 111.928 28.7867 111.554 29C111.181 29.2 110.874 29.5067 110.634 29.92C110.394 30.3333 110.274 30.84 110.274 31.44C110.274 32.04 110.394 32.5467 110.634 32.96C110.874 33.36 111.181 33.6667 111.554 33.88C111.928 34.08 112.314 34.18 112.714 34.18C113.114 34.18 113.501 34.08 113.874 33.88C114.261 33.6667 114.568 33.3533 114.794 32.94C115.034 32.5267 115.154 32.02 115.154 31.42ZM132.069 25.84V37H128.649V35.48C128.302 35.9733 127.829 36.3733 127.229 36.68C126.642 36.9733 125.989 37.12 125.269 37.12C124.415 37.12 123.662 36.9333 123.009 36.56C122.355 36.1733 121.849 35.62 121.489 34.9C121.129 34.18 120.949 33.3333 120.949 32.36V25.84H124.349V31.9C124.349 32.6467 124.542 33.2267 124.929 33.64C125.315 34.0533 125.835 34.26 126.489 34.26C127.155 34.26 127.682 34.0533 128.069 33.64C128.455 33.2267 128.649 32.6467 128.649 31.9V25.84H132.069ZM139.605 37.16C138.512 37.16 137.525 36.9267 136.645 36.46C135.778 35.9933 135.092 35.3267 134.585 34.46C134.092 33.5933 133.845 32.58 133.845 31.42C133.845 30.2733 134.098 29.2667 134.605 28.4C135.112 27.52 135.805 26.8467 136.685 26.38C137.565 25.9133 138.552 25.68 139.645 25.68C140.738 25.68 141.725 25.9133 142.605 26.38C143.485 26.8467 144.178 27.52 144.685 28.4C145.192 29.2667 145.445 30.2733 145.445 31.42C145.445 32.5667 145.185 33.58 144.665 34.46C144.158 35.3267 143.458 35.9933 142.565 36.46C141.685 36.9267 140.698 37.16 139.605 37.16ZM139.605 34.2C140.258 34.2 140.812 33.96 141.265 33.48C141.732 33 141.965 32.3133 141.965 31.42C141.965 30.5267 141.738 29.84 141.285 29.36C140.845 28.88 140.298 28.64 139.645 28.64C138.978 28.64 138.425 28.88 137.985 29.36C137.545 29.8267 137.325 30.5133 137.325 31.42C137.325 32.3133 137.538 33 137.965 33.48C138.405 33.96 138.952 34.2 139.605 34.2ZM153.48 34.1V37H151.74C150.5 37 149.533 36.7 148.84 36.1C148.146 35.4867 147.8 34.4933 147.8 33.12V28.68H146.44V25.84H147.8V23.12H151.22V25.84H153.46V28.68H151.22V33.16C151.22 33.4933 151.3 33.7333 151.46 33.88C151.62 34.0267 151.886 34.1 152.26 34.1H153.48ZM165.905 31.24C165.905 31.56 165.885 31.8933 165.845 32.24H158.105C158.158 32.9333 158.378 33.4667 158.765 33.84C159.165 34.2 159.651 34.38 160.225 34.38C161.078 34.38 161.671 34.02 162.005 33.3H165.645C165.458 34.0333 165.118 34.6933 164.625 35.28C164.145 35.8667 163.538 36.3267 162.805 36.66C162.071 36.9933 161.251 37.16 160.345 37.16C159.251 37.16 158.278 36.9267 157.425 36.46C156.571 35.9933 155.905 35.3267 155.425 34.46C154.945 33.5933 154.705 32.58 154.705 31.42C154.705 30.26 154.938 29.2467 155.405 28.38C155.885 27.5133 156.551 26.8467 157.405 26.38C158.258 25.9133 159.238 25.68 160.345 25.68C161.425 25.68 162.385 25.9067 163.225 26.36C164.065 26.8133 164.718 27.46 165.185 28.3C165.665 29.14 165.905 30.12 165.905 31.24ZM162.405 30.34C162.405 29.7533 162.205 29.2867 161.805 28.94C161.405 28.5933 160.905 28.42 160.305 28.42C159.731 28.42 159.245 28.5867 158.845 28.92C158.458 29.2533 158.218 29.7267 158.125 30.34H162.405Z" fill="white"/>
</g>
<defs>
<filter id="filter0_d_1_4067" x="0" y="0" width="217" height="62" filterUnits="userSpaceOnUse" color-interpolation-filters="sRGB">
<feFlood flood-opacity="0" result="BackgroundImageFix"/>
<feColorMatrix in="SourceAlpha" type="matrix" values="0 0 0 0 0 0 0 0 0 0 0 0 0 0 0 0 0 0 127 0" result="hardAlpha"/>
<feOffset dx="1" dy="1"/>
<feGaussianBlur stdDeviation="1"/>
<feComposite in2="hardAlpha" operator="out"/>
<feColorMatrix type="matrix" values="0 0 0 0 0 0 0 0 0 0 0 0 0 0 0 0 0 0 0.25 0"/>
<feBlend mode="normal" in2="BackgroundImageFix" result="effect1_dropShadow_1_4067"/>
<feBlend mode="normal" in="SourceGraphic" in2="effect1_dropShadow_1_4067" result="shape"/>
</filter>
</defs>
</svg>
