<svg width="645" height="545" viewBox="0 0 645 545" fill="none" xmlns="http://www.w3.org/2000/svg">
<g clip-path="url(#clip0_1_4076)">
<path d="M591.7 439.867C587.526 427.838 579.222 417.673 568.261 411.173C557.299 404.672 544.388 402.257 531.813 404.354C519.239 406.451 507.814 412.925 499.562 422.629C491.311 432.333 486.765 444.641 486.731 457.373V517.419L521.177 518.437H602.91C610.78 518.437 618.472 516.104 625.013 511.733C631.553 507.363 636.647 501.152 639.65 493.887C642.652 486.623 643.427 478.631 641.877 470.926C640.327 463.221 636.521 456.149 630.942 450.607C625.363 445.064 618.262 441.3 610.539 439.791C602.815 438.283 594.818 439.098 587.559 442.133C580.3 445.169 574.107 450.288 569.764 456.842C565.421 463.396 563.124 471.09 563.165 478.949" fill="#67F4AA"/>
<path d="M557.764 480.882C556.978 480.872 556.228 480.551 555.678 479.99C555.129 479.43 554.823 478.675 554.828 477.89C555.048 468.543 558.171 459.495 563.765 451.997C569.359 444.5 577.148 438.924 586.054 436.041C586.831 435.813 587.664 435.886 588.389 436.244C589.114 436.602 589.678 437.22 589.968 437.974C590.105 438.358 590.163 438.764 590.139 439.17C590.115 439.577 590.01 439.974 589.829 440.338C589.649 440.703 589.396 441.028 589.087 441.293C588.779 441.558 588.419 441.759 588.031 441.883C580.164 444.31 573.269 449.163 568.333 455.744C563.398 462.326 560.675 470.299 560.556 478.521C560.551 478.867 560.472 479.209 560.324 479.522C560.176 479.835 559.963 480.113 559.698 480.337C559.433 480.56 559.124 480.725 558.79 480.819C558.456 480.913 558.106 480.935 557.764 480.882Z" fill="#29B260"/>
<path d="M642.045 479.559C642.055 484.775 641.035 489.941 639.041 494.761C637.047 499.582 634.12 503.962 630.427 507.65C626.735 511.338 622.349 514.261 617.522 516.252C612.695 518.243 607.521 519.262 602.299 519.251H596.388C601.442 516.869 605.975 513.513 609.727 509.376C613.479 505.239 616.375 500.403 618.25 495.145C620.125 489.887 620.941 484.311 620.653 478.737C620.364 473.163 618.975 467.701 616.567 462.665C614.241 457.692 610.956 453.226 606.898 449.523C602.841 445.821 598.092 442.955 592.923 441.089C597.996 439.862 603.261 439.647 608.417 440.457C613.573 441.267 618.518 443.086 622.968 445.81C627.418 448.533 631.286 452.107 634.35 456.327C637.414 460.547 639.613 465.329 640.822 470.4C641.655 473.381 642.067 476.464 642.045 479.559Z" fill="#29B260"/>
<path d="M617.178 472.842C620.555 472.842 623.293 470.108 623.293 466.736C623.293 463.363 620.555 460.629 617.178 460.629C613.801 460.629 611.063 463.363 611.063 466.736C611.063 470.108 613.801 472.842 617.178 472.842Z" fill="#29B260"/>
<path d="M612.694 480.781C614.27 480.781 615.548 479.505 615.548 477.931C615.548 476.357 614.27 475.081 612.694 475.081C611.118 475.081 609.841 476.357 609.841 477.931C609.841 479.505 611.118 480.781 612.694 480.781Z" fill="#29B260"/>
<path d="M608.414 472.842C609.089 472.842 609.637 472.022 609.637 471.01C609.637 469.999 609.089 469.178 608.414 469.178C607.738 469.178 607.191 469.999 607.191 471.01C607.191 472.022 607.738 472.842 608.414 472.842Z" fill="#29B260"/>
<path d="M590.07 441.292C589.756 441.289 589.451 441.19 589.196 441.008C588.94 440.826 588.747 440.57 588.643 440.274C585.638 431.801 580.516 424.235 573.764 418.291C573.468 417.994 573.301 417.591 573.301 417.172C573.301 416.752 573.468 416.35 573.764 416.052C574.062 415.756 574.465 415.59 574.885 415.59C575.305 415.59 575.708 415.756 576.006 416.052C583.165 422.419 588.628 430.463 591.904 439.46C592.019 439.865 591.978 440.299 591.789 440.675C591.601 441.052 591.278 441.344 590.885 441.496L590.07 441.292Z" fill="#000201"/>
<path d="M602.91 520.778H521.177L486.67 519.76C486.059 519.744 485.478 519.49 485.052 519.053C484.625 518.616 484.387 518.03 484.387 517.419V457.373C484.427 444.212 489.087 431.482 497.556 421.399C506.025 411.316 517.766 404.518 530.737 402.189C543.707 399.86 557.084 402.147 568.54 408.653C579.996 415.158 588.805 425.469 593.433 437.791C596.54 437.07 599.72 436.708 602.91 436.712C614.073 436.712 624.779 441.141 632.672 449.023C640.566 456.906 645 467.597 645 478.745C645 489.893 640.566 500.584 632.672 508.467C624.779 516.349 614.073 520.778 602.91 520.778ZM489.177 515.139L521.34 516.096H602.91C610.316 516.096 617.556 513.9 623.711 509.787C629.866 505.674 634.659 499.828 637.484 492.991C640.309 486.154 641.038 478.634 639.578 471.383C638.118 464.132 634.536 457.477 629.284 452.262C624.033 447.046 617.35 443.505 610.081 442.087C602.813 440.669 595.286 441.438 588.456 444.296C581.625 447.154 575.798 451.973 571.713 458.142C567.628 464.311 565.468 471.553 565.509 478.949C565.509 479.569 565.262 480.165 564.822 480.604C564.383 481.043 563.786 481.289 563.165 481.289C562.543 481.289 561.947 481.043 561.507 480.604C561.068 480.165 560.821 479.569 560.821 478.949C560.819 470.227 563.517 461.718 568.545 454.588C573.573 447.457 580.685 442.052 588.908 439.114C584.024 426.636 574.5 416.525 562.326 410.895C550.152 405.266 536.27 404.554 523.582 408.908C513.531 412.438 504.823 418.995 498.661 427.676C492.499 436.356 489.185 446.732 489.177 457.373V515.139Z" fill="#000201"/>
<path d="M536.464 523.933L532.591 519.455C534.695 517.567 536.403 515.281 537.615 512.729C538.827 510.177 539.519 507.41 539.652 504.588C539.785 501.767 539.355 498.947 538.388 496.293C537.421 493.639 535.935 491.203 534.018 489.126C530.368 485.13 525.353 482.642 519.959 482.153C514.565 481.663 509.183 483.207 504.871 486.48L500.999 482.002C506.594 477.333 513.817 475.075 521.079 475.723C528.342 476.372 535.049 479.875 539.725 485.462C542.056 488.195 543.822 491.362 544.921 494.78C546.019 498.198 546.429 501.799 546.125 505.376C545.822 508.953 544.812 512.435 543.154 515.62C541.496 518.805 539.222 521.63 536.464 523.933Z" fill="#29B260"/>
<path d="M570.91 414.22H570.095C568.83 413.259 567.463 412.44 566.018 411.778C565.671 411.582 565.4 411.273 565.252 410.903C565.104 410.533 565.087 410.124 565.203 409.742C565.397 409.342 565.74 409.033 566.159 408.881C566.577 408.729 567.039 408.746 567.445 408.928C568.983 409.734 570.48 410.617 571.929 411.574C572.118 411.682 572.281 411.829 572.406 412.006C572.531 412.183 572.617 412.386 572.655 412.599C572.694 412.812 572.686 413.032 572.631 413.241C572.576 413.451 572.475 413.646 572.337 413.813C571.893 414.042 571.408 414.18 570.91 414.22Z" fill="#000201"/>
<path d="M561.127 409.132H560.515C552.61 406.056 544.094 404.87 535.649 405.671C535.234 405.649 534.836 405.5 534.508 405.246C534.18 404.991 533.938 404.642 533.814 404.247C533.741 403.843 533.828 403.426 534.056 403.084C534.284 402.743 534.636 402.503 535.037 402.415H540.948C547.996 402.358 554.988 403.672 561.534 406.282C561.914 406.451 562.223 406.746 562.409 407.117C562.595 407.489 562.646 407.913 562.553 408.317C562.559 408.479 562.531 408.641 562.472 408.791C562.413 408.942 562.323 409.079 562.208 409.194C562.093 409.308 561.956 409.398 561.805 409.457C561.654 409.517 561.493 409.544 561.33 409.539L561.127 409.132Z" fill="#000201"/>
<path d="M532.184 523.933C531.945 523.94 531.709 523.887 531.495 523.781C531.282 523.674 531.098 523.517 530.961 523.322C530.664 523.025 530.498 522.622 530.498 522.203C530.498 521.783 530.664 521.381 530.961 521.083C535.196 517.335 537.798 512.084 538.213 506.448C538.628 500.812 536.823 495.237 533.182 490.911C529.541 486.585 524.352 483.849 518.721 483.288C513.09 482.726 507.463 484.383 503.037 487.905C502.733 488.166 502.341 488.303 501.94 488.288C501.54 488.273 501.159 488.107 500.876 487.824C500.592 487.541 500.426 487.161 500.411 486.761C500.396 486.36 500.533 485.969 500.795 485.666C505.913 481.786 512.332 480.024 518.718 480.747C525.103 481.47 530.964 484.622 535.083 489.547C539.202 494.473 541.263 500.794 540.837 507.198C540.411 513.601 537.531 519.595 532.795 523.933H532.184Z" fill="#000201"/>
<path d="M525.661 417.477C525.121 417.477 524.602 417.263 524.22 416.881C523.838 416.499 523.623 415.982 523.623 415.442C523.63 415.051 523.748 414.671 523.965 414.346C524.182 414.022 524.488 413.766 524.846 413.61C531.684 410.818 539.092 409.701 546.451 410.353C546.956 410.404 547.423 410.64 547.762 411.017C548.102 411.393 548.288 411.882 548.286 412.388C548.286 412.874 548.092 413.34 547.748 413.684C547.404 414.027 546.938 414.22 546.451 414.22H546.247C539.459 413.633 532.625 414.608 526.273 417.07L525.661 417.477Z" fill="white"/>
<path d="M513.636 426.433C513.203 426.391 512.785 426.252 512.413 426.026C512.039 425.646 511.83 425.134 511.83 424.601C511.83 424.069 512.039 423.557 512.413 423.176C513.872 421.516 515.438 419.952 517.101 418.495C517.481 418.175 517.972 418.017 518.467 418.055C518.963 418.093 519.424 418.324 519.75 418.698C519.943 418.861 520.098 419.063 520.205 419.292C520.311 419.52 520.366 419.769 520.366 420.021C520.366 420.274 520.311 420.522 520.205 420.751C520.098 420.98 519.943 421.182 519.75 421.345C518.292 422.598 516.929 423.959 515.674 425.415C515.505 425.795 515.209 426.104 514.837 426.289C514.466 426.475 514.041 426.526 513.636 426.433Z" fill="white"/>
<path d="M177.938 439.867C182.113 427.838 190.416 417.673 201.378 411.173C212.339 404.672 225.251 402.257 237.825 404.354C250.399 406.451 261.824 412.925 270.076 422.629C278.328 432.333 282.873 444.641 282.907 457.373V517.419L248.461 518.437H166.728C158.867 518.437 151.182 516.109 144.646 511.748C138.11 507.386 133.016 501.187 130.008 493.935C126.999 486.682 126.212 478.701 127.746 471.002C129.279 463.302 133.065 456.23 138.623 450.679C144.182 445.128 151.264 441.347 158.974 439.816C166.684 438.284 174.675 439.07 181.938 442.075C189.2 445.079 195.408 450.166 199.775 456.693C204.142 463.221 206.473 470.895 206.473 478.745" fill="#67F4AA"/>
<path d="M212.588 479.763C212.976 479.75 213.358 479.66 213.712 479.5C214.065 479.339 214.384 479.11 214.649 478.827C214.914 478.543 215.12 478.21 215.256 477.847C215.392 477.484 215.455 477.097 215.442 476.71C215.007 467.367 211.674 458.39 205.904 451.024C200.134 443.657 192.213 438.264 183.237 435.593C182.843 435.45 182.424 435.388 182.005 435.411C181.587 435.434 181.177 435.542 180.801 435.728C180.425 435.914 180.091 436.175 179.819 436.493C179.547 436.812 179.343 437.183 179.218 437.583C179.094 437.983 179.052 438.404 179.096 438.821C179.139 439.237 179.267 439.641 179.471 440.007C179.676 440.373 179.952 440.693 180.284 440.949C180.616 441.205 180.997 441.391 181.403 441.496C189.332 443.74 196.345 448.436 201.435 454.909C206.525 461.382 209.431 469.299 209.735 477.524C209.77 477.86 209.872 478.186 210.036 478.482C210.199 478.778 210.421 479.038 210.687 479.246C210.953 479.455 211.258 479.609 211.585 479.697C211.912 479.786 212.253 479.808 212.588 479.763Z" fill="#29B260"/>
<path d="M234.805 523.933L238.474 519.455C236.216 517.666 234.339 515.443 232.956 512.918C231.573 510.393 230.71 507.616 230.42 504.752C230.13 501.889 230.417 498.996 231.265 496.245C232.114 493.494 233.506 490.941 235.359 488.736C237.212 486.531 239.489 484.72 242.055 483.41C244.621 482.099 247.425 481.315 250.299 481.105C253.174 480.894 256.061 481.262 258.791 482.185C261.521 483.108 264.039 484.569 266.194 486.48L269.863 482.002C267.115 479.635 263.922 477.837 260.472 476.714C257.022 475.592 253.382 475.166 249.765 475.461C246.148 475.757 242.626 476.768 239.405 478.437C236.183 480.105 233.326 482.397 231 485.179C228.674 487.961 226.926 491.177 225.857 494.64C224.788 498.104 224.42 501.745 224.774 505.352C225.128 508.959 226.197 512.459 227.92 515.649C229.642 518.839 231.982 521.655 234.805 523.933Z" fill="#29B260"/>
<path d="M127.594 479.559C127.583 484.775 128.604 489.941 130.597 494.761C132.591 499.582 135.518 503.962 139.211 507.65C142.904 511.338 147.29 514.261 152.117 516.252C156.944 518.243 162.117 519.262 167.339 519.251H173.25C168.196 516.869 163.663 513.513 159.911 509.376C156.16 505.239 153.263 500.403 151.388 495.145C149.513 489.887 148.697 484.311 148.986 478.737C149.275 473.163 150.663 467.701 153.072 462.665C155.397 457.692 158.683 453.226 162.74 449.523C166.797 445.821 171.546 442.955 176.715 441.089C171.642 439.862 166.377 439.647 161.221 440.457C156.065 441.267 151.12 443.086 146.67 445.81C142.22 448.533 138.352 452.107 135.288 456.327C132.224 460.547 130.025 465.329 128.817 470.4C127.983 473.381 127.572 476.464 127.594 479.559Z" fill="#29B260"/>
<path d="M152.256 472.842C155.633 472.842 158.371 470.108 158.371 466.736C158.371 463.363 155.633 460.629 152.256 460.629C148.879 460.629 146.142 463.363 146.142 466.736C146.142 470.108 148.879 472.842 152.256 472.842Z" fill="#29B260"/>
<path d="M156.944 480.781C158.52 480.781 159.798 479.505 159.798 477.931C159.798 476.357 158.52 475.081 156.944 475.081C155.368 475.081 154.091 476.357 154.091 477.931C154.091 479.505 155.368 480.781 156.944 480.781Z" fill="#29B260"/>
<path d="M161.225 472.842C161.9 472.842 162.447 472.022 162.447 471.01C162.447 469.999 161.9 469.178 161.225 469.178C160.549 469.178 160.002 469.999 160.002 471.01C160.002 472.022 160.549 472.842 161.225 472.842Z" fill="#29B260"/>
<path d="M179.569 441.292C179.882 441.289 180.187 441.19 180.443 441.008C180.698 440.826 180.891 440.57 180.995 440.274C184.001 431.801 189.122 424.235 195.875 418.291C196.171 417.994 196.337 417.591 196.337 417.172C196.337 416.752 196.171 416.35 195.875 416.052C195.577 415.756 195.174 415.59 194.754 415.59C194.333 415.59 193.93 415.756 193.633 416.052C186.345 422.306 180.858 430.386 177.734 439.46C177.631 439.657 177.577 439.876 177.575 440.098C177.573 440.32 177.624 440.539 177.723 440.738C177.823 440.937 177.968 441.109 178.147 441.241C178.326 441.372 178.534 441.46 178.753 441.496L179.569 441.292Z" fill="#000201"/>
<path d="M200.563 414.22H201.378C202.642 413.259 204.01 412.44 205.454 411.778C205.826 411.569 206.106 411.228 206.236 410.822C206.367 410.416 206.339 409.977 206.159 409.59C205.978 409.204 205.658 408.901 205.263 408.74C204.868 408.579 204.427 408.574 204.028 408.725C202.489 409.531 200.993 410.414 199.543 411.371C199.349 411.473 199.181 411.618 199.051 411.795C198.921 411.971 198.833 412.175 198.794 412.391C198.754 412.607 198.765 412.829 198.824 413.04C198.883 413.251 198.99 413.446 199.136 413.61C199.542 413.948 200.038 414.16 200.563 414.22Z" fill="#000201"/>
<path d="M210.55 409.132H211.161C219.066 406.056 227.582 404.87 236.028 405.671C236.253 405.722 236.485 405.725 236.711 405.68C236.937 405.635 237.151 405.544 237.339 405.411C237.528 405.279 237.686 405.109 237.805 404.912C237.923 404.715 237.999 404.495 238.028 404.267C238.056 404.039 238.037 403.807 237.971 403.587C237.904 403.367 237.792 403.163 237.642 402.989C237.492 402.814 237.308 402.673 237.1 402.574C236.892 402.475 236.666 402.421 236.436 402.415H230.525C223.476 402.358 216.484 403.672 209.938 406.282C209.559 406.451 209.25 406.746 209.064 407.117C208.878 407.489 208.827 407.913 208.919 408.317C209.024 408.613 209.217 408.869 209.472 409.051C209.727 409.233 210.032 409.332 210.346 409.335L210.55 409.132Z" fill="#000201"/>
<path d="M168.358 520.269H250.092C250.307 520.272 250.52 520.231 250.719 520.151C250.918 520.07 251.099 519.95 251.251 519.798C251.403 519.646 251.523 519.466 251.604 519.267C251.685 519.068 251.725 518.855 251.722 518.641C251.725 518.426 251.685 518.213 251.604 518.014C251.523 517.815 251.403 517.635 251.251 517.483C251.099 517.331 250.918 517.211 250.719 517.131C250.52 517.05 250.307 517.009 250.092 517.012H168.358C160.82 517.012 153.451 514.78 147.183 510.597C140.915 506.415 136.029 500.47 133.145 493.515C130.26 486.56 129.505 478.906 130.976 471.523C132.446 464.139 136.076 457.357 141.407 452.034C146.737 446.71 153.529 443.085 160.922 441.617C168.316 440.148 175.98 440.902 182.944 443.783C189.909 446.663 195.862 451.542 200.05 457.802C204.238 464.061 206.473 471.42 206.473 478.949C206.433 479.149 206.433 479.356 206.473 479.556C206.512 479.757 206.591 479.947 206.705 480.118C206.818 480.288 206.964 480.434 207.135 480.548C207.305 480.661 207.496 480.74 207.696 480.781C207.897 480.821 208.104 480.821 208.305 480.781C208.505 480.742 208.696 480.663 208.867 480.549C209.037 480.436 209.183 480.29 209.297 480.12C209.411 479.95 209.491 479.76 209.531 479.559V478.949C209.531 470.817 207.116 462.867 202.592 456.105C198.068 449.344 191.638 444.074 184.114 440.962C176.591 437.85 168.313 437.035 160.326 438.622C152.339 440.208 145.003 444.124 139.245 449.875C133.487 455.625 129.566 462.951 127.977 470.927C126.388 478.903 127.204 487.17 130.32 494.683C133.436 502.196 138.713 508.618 145.484 513.136C152.255 517.654 160.215 520.065 168.358 520.065V520.269Z" fill="#000201"/>
<path d="M239.493 523.933C239.731 523.94 239.968 523.887 240.181 523.781C240.394 523.674 240.578 523.517 240.716 523.322C241.012 523.025 241.178 522.622 241.178 522.203C241.178 521.783 241.012 521.381 240.716 521.083C236.48 517.335 233.878 512.084 233.463 506.448C233.048 500.812 234.854 495.237 238.495 490.911C242.136 486.585 247.324 483.849 252.955 483.288C258.586 482.726 264.214 484.383 268.64 487.905C268.944 488.166 269.335 488.303 269.736 488.288C270.137 488.273 270.517 488.107 270.801 487.824C271.084 487.541 271.25 487.161 271.265 486.761C271.28 486.36 271.143 485.969 270.882 485.666C265.763 481.786 259.344 480.024 252.959 480.747C246.573 481.47 240.712 484.622 236.593 489.547C232.474 494.473 230.414 500.794 230.84 507.198C231.266 513.601 234.146 519.595 238.881 523.933H239.493Z" fill="#000201"/>
<path d="M246.015 417.477C246.556 417.477 247.074 417.263 247.456 416.881C247.839 416.499 248.053 415.981 248.053 415.442C248.047 415.051 247.928 414.671 247.711 414.346C247.495 414.021 247.189 413.766 246.83 413.61C239.925 410.802 232.447 409.686 225.021 410.353C224.517 410.404 224.049 410.64 223.71 411.017C223.371 411.393 223.184 411.882 223.187 412.388C223.187 412.874 223.38 413.34 223.724 413.684C224.068 414.027 224.535 414.22 225.021 414.22H225.225C232.014 413.633 238.847 414.608 245.2 417.07C245.404 417.477 245.607 417.477 246.015 417.477Z" fill="white"/>
<path d="M258.041 426.433C258.474 426.391 258.892 426.252 259.264 426.026C259.457 425.864 259.612 425.661 259.718 425.433C259.825 425.204 259.88 424.955 259.88 424.703C259.88 424.451 259.825 424.202 259.718 423.973C259.612 423.745 259.457 423.542 259.264 423.38C257.805 421.719 256.239 420.156 254.576 418.698C254.163 418.422 253.663 418.305 253.17 418.371C252.677 418.436 252.225 418.68 251.899 419.055C251.574 419.43 251.397 419.912 251.401 420.408C251.406 420.905 251.593 421.383 251.926 421.752C253.385 423.005 254.748 424.366 256.003 425.823C256.6 426.236 257.314 426.45 258.041 426.433Z" fill="white"/>
<path d="M622.477 117.854C622.548 103.594 617.349 89.8085 607.875 79.1378C598.402 68.467 585.32 61.6609 571.135 60.0224C556.949 58.384 542.657 62.0284 530.995 70.2579C519.333 78.4874 511.12 90.7236 507.929 104.624C503.515 102.182 498.658 100.646 493.642 100.104C488.626 99.5629 483.552 100.027 478.719 101.47C473.885 102.913 469.388 105.305 465.492 108.507C461.597 111.708 458.38 115.654 456.032 120.114C453.684 124.573 452.252 129.456 451.818 134.476C451.385 139.495 451.96 144.551 453.51 149.346C455.059 154.141 457.552 158.578 460.841 162.398C464.131 166.218 468.152 169.344 472.667 171.591C477.487 174.051 482.757 175.506 488.158 175.866H570.299C584.691 174.48 598.038 167.75 607.701 157.008C617.363 146.265 622.636 132.293 622.477 117.854Z" fill="#ECEFF6"/>
<g opacity="0.2">
<path opacity="0.2" d="M123.313 230.416C123.329 236.764 120.907 242.877 116.547 247.496C112.187 252.115 106.22 254.89 99.8736 255.249H45.2489C38.2585 254.532 31.6003 251.909 26.0024 247.667C20.4045 243.424 16.0825 237.727 13.509 231.197C10.9356 224.666 10.2098 217.555 11.4111 210.641C12.6124 203.727 15.6945 197.275 20.3203 191.993C24.9461 186.71 30.9375 182.799 37.6392 180.688C44.3409 178.577 51.4948 178.347 58.3186 180.023C65.1423 181.699 71.3731 185.217 76.3296 190.192C81.286 195.167 84.7772 201.407 86.4212 208.23C89.3097 206.669 92.4787 205.694 95.7459 205.361C99.0132 205.027 102.314 205.343 105.459 206.289C108.603 207.235 111.53 208.792 114.069 210.872C116.609 212.952 118.711 215.513 120.256 218.407C122.292 222.081 123.345 226.217 123.313 230.416Z" fill="#C8D3D9"/>
</g>
<g opacity="0.2">
<path opacity="0.2" d="M231.951 326.695C231.967 333.043 229.545 339.155 225.185 343.774C220.825 348.394 214.858 351.168 208.512 351.528H154.295C147.277 350.829 140.589 348.214 134.961 343.969C129.334 339.725 124.986 334.015 122.394 327.465C119.802 320.916 119.065 313.781 120.266 306.841C121.466 299.901 124.557 293.426 129.199 288.125C133.841 282.823 139.855 278.901 146.582 276.788C153.309 274.674 160.488 274.451 167.333 276.144C174.179 277.836 180.425 281.378 185.388 286.381C190.35 291.385 193.838 297.656 195.467 304.508C201.288 301.4 208.1 300.704 214.431 302.57C220.762 304.436 226.104 308.715 229.302 314.482C231.337 318.156 232.39 322.292 232.359 326.491L231.951 326.695Z" fill="#C8D3D9"/>
</g>
<path d="M152.664 220.036C124.944 220.036 102.931 211.079 87.4404 193.167C77.2492 181.361 64.4083 159.582 60.9433 121.315C59.6862 107.635 59.7545 93.8651 61.1471 80.198C61.351 79.3838 61.9624 78.7732 62.7777 78.9767C63.593 79.1803 64.2045 79.7909 64.0007 80.6051C64.0007 81.2157 55.0324 152.254 89.4786 191.335C104.562 208.23 125.759 216.779 152.46 216.779C152.649 216.773 152.837 216.806 153.013 216.876C153.188 216.945 153.348 217.05 153.482 217.184C153.615 217.317 153.72 217.476 153.79 217.652C153.859 217.827 153.893 218.015 153.887 218.204C153.887 219.018 153.479 220.036 152.664 220.036Z" fill="#000201"/>
<path d="M168.155 220.036C140.435 220.036 118.422 211.079 102.931 193.167C92.7398 181.361 79.8989 159.582 76.4339 121.315C75.0071 107.646 75.0071 93.8665 76.4339 80.198C76.6377 79.3838 77.2492 78.7732 78.0645 78.9767C78.2438 78.9742 78.4214 79.0111 78.5848 79.0848C78.7483 79.1585 78.8934 79.2671 79.0101 79.4031C79.1268 79.539 79.2122 79.6989 79.2601 79.8715C79.308 80.044 79.3173 80.225 79.2874 80.4015V80.6051C79.2874 81.2157 70.3192 152.254 104.765 191.335C119.848 208.433 141.046 217.186 167.747 217.186C168.125 217.186 168.488 217.336 168.756 217.603C169.023 217.87 169.174 218.233 169.174 218.611C169.174 218.989 169.023 219.351 168.756 219.618C168.488 219.885 168.125 220.036 167.747 220.036H168.155Z" fill="#000201"/>
<path d="M205.658 66.3567H30.9812V81.0121H205.658V66.3567Z" fill="#F9A948"/>
<path d="M205.047 65.7461H30.3698V71.649H205.047V65.7461Z" fill="#FFD297"/>
<path d="M205.454 82.0299H30.9812C30.7508 82.0254 30.5238 81.9733 30.3144 81.877C30.1051 81.7806 29.918 81.6421 29.7648 81.47C29.6117 81.298 29.4958 81.0961 29.4246 80.8772C29.3533 80.6583 29.3281 80.4271 29.3507 80.198V65.5425C29.3507 65.0566 29.5439 64.5907 29.8879 64.2471C30.232 63.9036 30.6986 63.7106 31.1851 63.7106H205.658C205.899 63.7106 206.138 63.758 206.36 63.85C206.583 63.9421 206.785 64.077 206.955 64.2471C207.126 64.4172 207.261 64.6192 207.353 64.8415C207.445 65.0637 207.493 65.3019 207.493 65.5425V80.198C207.488 80.4548 207.43 80.7079 207.324 80.9415C207.217 81.1752 207.063 81.3845 206.872 81.5563C206.681 81.7281 206.456 81.8588 206.213 81.9403C205.969 82.0218 205.711 82.0523 205.454 82.0299ZM32.8157 78.366H203.824V67.3744H32.8157V78.366Z" fill="#000201"/>
<path d="M113.734 19.7441H95.3895V139.43H113.734V19.7441Z" fill="#D9E1E4"/>
<path d="M110.676 19.7441H102.727V139.43H110.676V19.7441Z" fill="#B4BEC1"/>
<path d="M98.4469 19.7441H93.9628V139.43H98.4469V19.7441Z" fill="white"/>
<path d="M111.492 140.855H93.5551C93.0686 140.855 92.602 140.662 92.258 140.319C91.914 139.975 91.7207 139.509 91.7207 139.023V19.3371C91.7207 18.8512 91.914 18.3852 92.258 18.0417C92.602 17.6981 93.0686 17.5051 93.5551 17.5051H111.492C111.978 17.5051 112.445 17.6981 112.789 18.0417C113.133 18.3852 113.326 18.8512 113.326 19.3371V139.023C113.326 139.509 113.133 139.975 112.789 140.319C112.445 140.662 111.978 140.855 111.492 140.855ZM95.1857 137.191H109.861V21.169H95.3895L95.1857 137.191Z" fill="#000201"/>
<path d="M128.205 1.4248H111.492V519.455H128.205V1.4248Z" fill="#FFD297"/>
<path d="M126.778 1.4248H118.014V519.455H126.778V1.4248Z" fill="#F9A948"/>
<path d="M111.084 272.551C110.597 272.551 110.131 272.358 109.787 272.014C109.443 271.671 109.25 271.205 109.25 270.719V260.949C109.25 260.463 109.443 259.997 109.787 259.653C110.131 259.31 110.597 259.117 111.084 259.117C111.57 259.117 112.037 259.31 112.381 259.653C112.725 259.997 112.918 260.463 112.918 260.949V270.719C112.918 271.205 112.725 271.671 112.381 272.014C112.037 272.358 111.57 272.551 111.084 272.551Z" fill="#000201"/>
<path d="M111.084 288.835C110.597 288.835 110.131 288.642 109.787 288.298C109.443 287.955 109.25 287.489 109.25 287.003V281.507C109.25 281.021 109.443 280.555 109.787 280.212C110.131 279.868 110.597 279.675 111.084 279.675C111.57 279.675 112.037 279.868 112.381 280.212C112.725 280.555 112.918 281.021 112.918 281.507V287.41C112.794 287.806 112.552 288.154 112.224 288.409C111.897 288.664 111.499 288.812 111.084 288.835Z" fill="#000201"/>
<path d="M127.797 522.101H111.084C110.597 522.101 110.131 521.908 109.787 521.564C109.443 521.221 109.25 520.755 109.25 520.269V296.366C109.25 295.88 109.443 295.414 109.787 295.071C110.131 294.727 110.597 294.534 111.084 294.534C111.57 294.534 112.037 294.727 112.381 295.071C112.725 295.414 112.918 295.88 112.918 296.366V518.233H126.167V3.86741H112.918V248.736C112.918 249.222 112.725 249.688 112.381 250.031C112.037 250.375 111.57 250.568 111.084 250.568C110.597 250.568 110.131 250.375 109.787 250.031C109.443 249.688 109.25 249.222 109.25 248.736V1.83193C109.25 1.34607 109.443 0.880115 109.787 0.536561C110.131 0.193007 110.597 0 111.084 0L127.797 0C128.284 0 128.751 0.193007 129.095 0.536561C129.439 0.880115 129.632 1.34607 129.632 1.83193V520.065C129.663 520.307 129.645 520.552 129.579 520.786C129.514 521.02 129.401 521.239 129.249 521.429C129.097 521.619 128.908 521.776 128.694 521.892C128.479 522.007 128.244 522.078 128.001 522.101H127.797Z" fill="#000201"/>
<path d="M122.09 162.024C121.954 162.033 121.818 162.013 121.69 161.965C121.562 161.917 121.446 161.843 121.35 161.746C121.253 161.65 121.179 161.534 121.131 161.406C121.082 161.279 121.062 161.143 121.071 161.007V148.59C121.071 148.32 121.179 148.061 121.37 147.87C121.561 147.68 121.82 147.572 122.09 147.572C122.361 147.572 122.62 147.68 122.811 147.87C123.002 148.061 123.11 148.32 123.11 148.59V161.007C123.091 161.27 122.977 161.518 122.79 161.705C122.603 161.892 122.354 162.005 122.09 162.024Z" fill="#000201"/>
<path d="M122.09 341.554C121.826 341.535 121.578 341.422 121.391 341.235C121.204 341.048 121.09 340.8 121.071 340.536V328.119C121.071 327.85 121.179 327.591 121.37 327.4C121.561 327.209 121.82 327.102 122.09 327.102C122.361 327.102 122.62 327.209 122.811 327.4C123.002 327.591 123.11 327.85 123.11 328.119V340.332C123.091 340.596 122.977 340.844 122.79 341.031C122.603 341.218 122.354 341.331 122.09 341.35V341.554Z" fill="#000201"/>
<path d="M122.09 323.234C121.826 323.215 121.578 323.102 121.391 322.915C121.204 322.728 121.09 322.48 121.071 322.217V314.889C121.071 314.619 121.179 314.36 121.37 314.169C121.561 313.978 121.82 313.871 122.09 313.871C122.361 313.871 122.62 313.978 122.811 314.169C123.002 314.36 123.11 314.619 123.11 314.889V322.217C123.119 322.353 123.098 322.489 123.05 322.616C123.002 322.744 122.928 322.86 122.831 322.956C122.735 323.053 122.619 323.127 122.491 323.175C122.363 323.223 122.227 323.243 122.09 323.234Z" fill="#000201"/>
<path d="M44.6374 75.1092H32.2042C32.068 75.1182 31.9315 75.0981 31.8038 75.0501C31.6761 75.0021 31.5601 74.9275 31.4636 74.8311C31.3671 74.7347 31.2923 74.6189 31.2443 74.4913C31.1963 74.3638 31.1761 74.2275 31.1851 74.0915C31.1761 73.9555 31.1963 73.8192 31.2443 73.6916C31.2923 73.5641 31.3671 73.4482 31.4636 73.3519C31.5601 73.2555 31.6761 73.1808 31.8038 73.1329C31.9315 73.0849 32.068 73.0647 32.2042 73.0737H44.6374C44.9077 73.0737 45.1669 73.181 45.3581 73.3718C45.5492 73.5627 45.6566 73.8216 45.6566 74.0915C45.6566 74.3614 45.5492 74.6203 45.3581 74.8111C45.1669 75.002 44.9077 75.1092 44.6374 75.1092Z" fill="#000201"/>
<path d="M60.7395 75.1092H51.1598C51.0236 75.1182 50.8871 75.098 50.7593 75.0501C50.6316 75.0021 50.5156 74.9275 50.4191 74.8311C50.3226 74.7347 50.2479 74.6189 50.1998 74.4913C50.1518 74.3638 50.1316 74.2274 50.1406 74.0915C50.1596 73.8278 50.273 73.5798 50.4602 73.3928C50.6474 73.2059 50.8957 73.0926 51.1598 73.0737H60.7395C61.0098 73.0737 61.269 73.181 61.4601 73.3718C61.6512 73.5627 61.7586 73.8215 61.7586 74.0915C61.7586 74.3614 61.6512 74.6203 61.4601 74.8111C61.269 75.002 61.0098 75.1092 60.7395 75.1092Z" fill="#000201"/>
<path d="M119.033 467.754C118.897 467.763 118.76 467.742 118.633 467.694C118.505 467.646 118.389 467.572 118.292 467.475C118.196 467.379 118.121 467.263 118.073 467.136C118.025 467.008 118.005 466.872 118.014 466.736V454.319C118.014 454.049 118.121 453.791 118.312 453.6C118.504 453.409 118.763 453.302 119.033 453.302C119.303 453.302 119.563 453.409 119.754 453.6C119.945 453.791 120.052 454.049 120.052 454.319V466.736C120.256 467.346 119.645 467.754 119.033 467.754Z" fill="#000201"/>
<path d="M1.42677 150.626C1.23788 150.631 1.04982 150.598 0.874169 150.529C0.698514 150.459 0.538969 150.354 0.40534 150.221C0.271711 150.087 0.166821 149.928 0.0971163 149.753C0.0274117 149.577 -0.00563486 149.389 7.62136e-06 149.201C0.00298475 148.888 0.10237 148.583 0.28468 148.328C0.466991 148.073 0.723401 147.88 1.01913 147.776C38.9303 138.006 40.1533 81.6228 40.1533 81.0121C40.1533 80.6342 40.3036 80.2718 40.5712 80.0046C40.8387 79.7374 41.2016 79.5873 41.58 79.5873C41.9584 79.5873 42.3213 79.7374 42.5889 80.0046C42.8565 80.2718 43.0068 80.6342 43.0068 81.0121C42.599 91.4616 40.7471 101.805 37.5036 111.748C30.5736 132.917 18.1403 146.555 1.42677 150.626Z" fill="#000201"/>
<path d="M11.6179 155.714C11.429 155.72 11.241 155.687 11.0653 155.617C10.8897 155.548 10.7301 155.443 10.5965 155.309C10.4629 155.176 10.358 155.017 10.2883 154.841C10.2186 154.666 10.1855 154.478 10.1912 154.289C10.1941 153.976 10.2935 153.671 10.4758 153.417C10.6582 153.162 10.9146 152.969 11.2103 152.865C49.1215 143.094 50.3444 81.6228 50.3444 81.0121C50.3444 80.6342 50.4948 80.2718 50.7623 80.0046C51.0299 79.7374 51.3928 79.5873 51.7712 79.5873C52.1496 79.5873 52.5125 79.7374 52.7801 80.0046C53.0476 80.2718 53.198 80.6342 53.198 81.0121C52.7927 92.2612 50.9432 103.412 47.6947 114.19C40.7647 136.988 28.3315 151.236 11.6179 155.714Z" fill="#000201"/>
<path d="M563.165 230.009V521.694H198.524V493.197V227.363" fill="#D9E1E4"/>
<path opacity="0.4" d="M563.165 230.009V521.694H415.596V493.197V227.363" fill="#94B5BF"/>
<path d="M564.388 262.577V288.835C560.655 284.216 558.575 278.485 558.477 272.551C558.477 279.461 555.728 286.088 550.836 290.974C545.943 295.86 539.307 298.605 532.388 298.605C525.468 298.605 518.832 295.86 513.939 290.974C509.047 286.088 506.298 279.461 506.298 272.551C506.032 279.283 503.166 285.65 498.303 290.319C493.439 294.988 486.955 297.595 480.209 297.595C473.462 297.595 466.978 294.988 462.115 290.319C457.251 285.65 454.386 279.283 454.119 272.551C453.853 279.283 450.987 285.65 446.124 290.319C441.26 294.988 434.776 297.595 428.03 297.595C421.284 297.595 414.799 294.988 409.936 290.319C405.072 285.65 402.207 279.283 401.94 272.551C401.674 279.283 398.809 285.65 393.945 290.319C389.081 294.988 382.597 297.595 375.851 297.595C369.105 297.595 362.62 294.988 357.757 290.319C352.893 285.65 350.028 279.283 349.761 272.551C349.495 279.283 346.63 285.65 341.766 290.319C336.903 294.988 330.418 297.595 323.672 297.595C316.926 297.595 310.442 294.988 305.578 290.319C300.714 285.65 297.849 279.283 297.583 272.551C297.583 279.461 294.834 286.088 289.941 290.974C285.048 295.86 278.413 298.605 271.493 298.605C264.574 298.605 257.938 295.86 253.045 290.974C248.152 286.088 245.404 279.461 245.404 272.551C245.371 277.884 243.697 283.078 240.61 287.429C237.523 291.781 233.171 295.08 228.144 296.879C223.117 298.678 217.658 298.891 212.505 297.489C207.353 296.086 202.757 293.136 199.34 289.038V262.781C203.756 268.081 210.094 271.421 216.969 272.069C223.843 272.718 230.696 270.622 236.028 266.241C238.954 263.788 241.322 260.74 242.974 257.3C244.626 253.86 245.524 250.107 245.608 246.293C245.608 253.203 248.356 259.83 253.249 264.716C258.142 269.602 264.778 272.347 271.697 272.347C278.616 272.347 285.252 269.602 290.145 264.716C295.038 259.83 297.786 253.203 297.786 246.293C298.053 253.025 300.918 259.392 305.782 264.061C310.645 268.73 317.13 271.338 323.876 271.338C330.622 271.338 337.106 268.73 341.97 264.061C346.834 259.392 349.699 253.025 349.965 246.293C350.232 253.025 353.097 259.392 357.961 264.061C362.824 268.73 369.309 271.338 376.055 271.338C382.801 271.338 389.285 268.73 394.149 264.061C399.012 259.392 401.878 253.025 402.144 246.293C402.411 253.025 405.276 259.392 410.14 264.061C415.003 268.73 421.487 271.338 428.234 271.338C434.98 271.338 441.464 268.73 446.328 264.061C451.191 259.392 454.057 253.025 454.323 246.293C454.59 253.025 457.455 259.392 462.318 264.061C467.182 268.73 473.666 271.338 480.412 271.338C487.159 271.338 493.643 268.73 498.507 264.061C503.37 259.392 506.235 253.025 506.502 246.293C506.502 253.203 509.251 259.83 514.143 264.716C519.036 269.602 525.672 272.347 532.591 272.347C539.511 272.347 546.147 269.602 551.039 264.716C555.932 259.83 558.681 253.203 558.681 246.293C558.609 252.222 560.629 257.987 564.388 262.577Z" fill="#94B5BF"/>
<path d="M200.97 306.951H219.722C224.148 306.972 228.387 308.737 231.517 311.863C234.646 314.988 236.414 319.221 236.436 323.641V456.355C236.372 459.771 234.97 463.026 232.532 465.423C230.094 467.82 226.812 469.168 223.391 469.178H201.174V306.951H200.97Z" fill="#94B5BF"/>
<path d="M226.244 467.957L168.562 463.886V299.012H226.244V467.957Z" fill="white"/>
<path d="M226.244 297.994V466.939H168.358V454.93H184.868C192.652 454.93 200.118 451.842 205.622 446.345C211.126 440.848 214.219 433.393 214.219 425.619V297.994H226.244Z" fill="#FFEDE1"/>
<path d="M226.244 469.891H168.562C168.254 469.893 167.948 469.835 167.662 469.718C167.376 469.601 167.117 469.429 166.899 469.211C166.681 468.993 166.508 468.734 166.391 468.449C166.274 468.164 166.216 467.858 166.218 467.55V401.6C166.218 400.98 166.465 400.384 166.905 399.945C167.344 399.506 167.941 399.26 168.562 399.26C169.184 399.26 169.78 399.506 170.22 399.945C170.659 400.384 170.906 400.98 170.906 401.6V465.209H223.9V300.946H170.906V337.279C170.906 337.9 170.659 338.495 170.22 338.934C169.78 339.373 169.184 339.62 168.562 339.62C167.941 339.62 167.344 339.373 166.905 338.934C166.465 338.495 166.218 337.9 166.218 337.279V298.605C166.216 298.297 166.274 297.991 166.391 297.706C166.508 297.421 166.681 297.162 166.899 296.944C167.117 296.726 167.376 296.554 167.662 296.437C167.948 296.32 168.254 296.262 168.562 296.264H226.244C226.553 296.262 226.859 296.32 227.145 296.437C227.43 296.554 227.69 296.726 227.908 296.944C228.126 297.162 228.299 297.421 228.415 297.706C228.532 297.991 228.591 298.297 228.588 298.605V467.55C228.591 467.858 228.532 468.164 228.415 468.449C228.299 468.734 228.126 468.993 227.908 469.211C227.69 469.429 227.43 469.601 227.145 469.718C226.859 469.835 226.553 469.893 226.244 469.891Z" fill="#000201"/>
<path d="M196.69 351.528C204.345 351.528 210.55 345.331 210.55 337.686C210.55 330.042 204.345 323.845 196.69 323.845C189.035 323.845 182.83 330.042 182.83 337.686C182.83 345.331 189.035 351.528 196.69 351.528Z" fill="#D6393A"/>
<path d="M200.97 393.866C204.572 393.866 207.492 390.949 207.492 387.352C207.492 383.755 204.572 380.839 200.97 380.839C197.368 380.839 194.448 383.755 194.448 387.352C194.448 390.949 197.368 393.866 200.97 393.866Z" fill="#BA2028"/>
<path d="M196.69 397.326C204.345 397.326 210.55 391.129 210.55 383.485C210.55 375.84 204.345 369.643 196.69 369.643C189.035 369.643 182.83 375.84 182.83 383.485C182.83 391.129 189.035 397.326 196.69 397.326Z" fill="#D6393A"/>
<path d="M196.69 439.46C204.345 439.46 210.55 433.263 210.55 425.619C210.55 417.975 204.345 411.778 196.69 411.778C189.035 411.778 182.83 417.975 182.83 425.619C182.83 433.263 189.035 439.46 196.69 439.46Z" fill="#D6393A"/>
<path d="M180.792 459.205C183.493 459.205 185.683 457.017 185.683 454.319C185.683 451.621 183.493 449.434 180.792 449.434C178.09 449.434 175.9 451.621 175.9 454.319C175.9 457.017 178.09 459.205 180.792 459.205Z" fill="#FFEDE1"/>
<path d="M190.168 449.231C191.518 449.231 192.613 448.137 192.613 446.788C192.613 445.439 191.518 444.345 190.168 444.345C188.817 444.345 187.722 445.439 187.722 446.788C187.722 448.137 188.817 449.231 190.168 449.231Z" fill="#FFEDE1"/>
<path d="M216.257 407.3C218.733 407.3 220.741 405.295 220.741 402.822C220.741 400.349 218.733 398.344 216.257 398.344C213.78 398.344 211.773 400.349 211.773 402.822C211.773 405.295 213.78 407.3 216.257 407.3Z" fill="#FFEDE1"/>
<path d="M168.562 366.387C168.254 366.389 167.948 366.331 167.662 366.214C167.376 366.097 167.117 365.925 166.899 365.707C166.681 365.489 166.508 365.23 166.391 364.945C166.274 364.659 166.216 364.354 166.218 364.046V352.647C166.218 352.026 166.465 351.431 166.905 350.992C167.344 350.553 167.941 350.306 168.562 350.306C169.184 350.306 169.78 350.553 170.22 350.992C170.659 351.431 170.906 352.026 170.906 352.647V364.046C170.909 364.354 170.85 364.659 170.733 364.945C170.616 365.23 170.444 365.489 170.226 365.707C170.007 365.925 169.748 366.097 169.462 366.214C169.177 366.331 168.871 366.389 168.562 366.387Z" fill="#000201"/>
<path d="M168.562 389.489C168.254 389.492 167.948 389.433 167.662 389.317C167.376 389.2 167.117 389.028 166.899 388.81C166.681 388.592 166.508 388.333 166.391 388.047C166.274 387.762 166.216 387.457 166.218 387.148V377.378C166.218 376.757 166.465 376.162 166.905 375.723C167.344 375.284 167.941 375.037 168.562 375.037C169.184 375.037 169.78 375.284 170.22 375.723C170.659 376.162 170.906 376.757 170.906 377.378V387.148C170.909 387.457 170.85 387.762 170.733 388.047C170.616 388.333 170.444 388.592 170.226 388.81C170.007 389.028 169.748 389.2 169.462 389.317C169.177 389.433 168.871 389.492 168.562 389.489Z" fill="#000201"/>
<path d="M198.524 483.63C200.325 483.63 201.785 482.172 201.785 480.373C201.785 478.575 200.325 477.117 198.524 477.117C196.723 477.117 195.263 478.575 195.263 480.373C195.263 482.172 196.723 483.63 198.524 483.63Z" fill="#000201"/>
<path d="M230.117 249.346C235.633 249.346 240.104 244.881 240.104 239.373C240.104 233.864 235.633 229.399 230.117 229.399C224.601 229.399 220.13 233.864 220.13 239.373C220.13 244.881 224.601 249.346 230.117 249.346Z" fill="#C8D3D9"/>
<path d="M434.348 230.009C435.474 230.009 436.386 229.098 436.386 227.974C436.386 226.85 435.474 225.938 434.348 225.938C433.223 225.938 432.31 226.85 432.31 227.974C432.31 229.098 433.223 230.009 434.348 230.009Z" fill="#C8D3D9"/>
<path d="M375.647 523.119V317.942H257.022V523.119" fill="#FFD297"/>
<path d="M375.647 451.063V428.265H257.022V451.063" fill="#F29530"/>
<path d="M537.483 315.296H401.94V424.398H537.483V315.296Z" fill="#DEF6FF"/>
<path d="M198.524 290.158C198.216 290.16 197.91 290.102 197.624 289.985C197.338 289.868 197.079 289.696 196.861 289.478C196.643 289.26 196.47 289.001 196.353 288.716C196.236 288.431 196.178 288.125 196.18 287.817V267.869C196.18 267.248 196.427 266.653 196.867 266.214C197.306 265.775 197.903 265.528 198.524 265.528C199.146 265.528 199.742 265.775 200.182 266.214C200.621 266.653 200.868 267.248 200.868 267.869V287.817C200.871 288.125 200.812 288.431 200.695 288.716C200.579 289.001 200.406 289.26 200.188 289.478C199.97 289.696 199.71 289.868 199.424 289.985C199.139 290.102 198.833 290.16 198.524 290.158Z" fill="#000201"/>
<path d="M538.258 427.451H401.166V315.133H538.258V427.451ZM410.868 417.762H528.556V324.822H410.868V417.762Z" fill="#99CDDD"/>
<path opacity="0.5" d="M318.373 317.942H308.589L255.187 395.087L255.391 409.539L318.373 317.942Z" fill="white"/>
<path d="M351.8 317.942H339.978L273.939 413.813V428.265L351.8 317.942Z" fill="white"/>
<path d="M374.424 317.942H357.914L291.875 413.813L296.767 428.265L374.424 317.942Z" fill="white"/>
<path d="M375.647 524.035C375.338 524.037 375.032 523.979 374.747 523.862C374.461 523.745 374.202 523.573 373.984 523.355C373.765 523.137 373.593 522.878 373.476 522.593C373.359 522.308 373.3 522.002 373.303 521.694V318.858H259.366V521.694C259.366 522.001 259.305 522.306 259.187 522.59C259.069 522.874 258.897 523.132 258.679 523.349C258.461 523.566 258.203 523.739 257.919 523.856C257.634 523.974 257.329 524.035 257.022 524.035C256.714 524.035 256.409 523.974 256.125 523.856C255.84 523.739 255.582 523.566 255.364 523.349C255.147 523.132 254.974 522.874 254.856 522.59C254.738 522.306 254.678 522.001 254.678 521.694V316.517C254.675 316.209 254.734 315.903 254.851 315.618C254.967 315.333 255.14 315.074 255.358 314.856C255.576 314.638 255.836 314.466 256.121 314.349C256.407 314.232 256.713 314.174 257.022 314.176H375.647C375.956 314.174 376.262 314.232 376.547 314.349C376.833 314.466 377.092 314.638 377.311 314.856C377.529 315.074 377.701 315.333 377.818 315.618C377.935 315.903 377.994 316.209 377.991 316.517V521.694C377.994 522.002 377.935 522.308 377.818 522.593C377.701 522.878 377.529 523.137 377.311 523.355C377.092 523.573 376.833 523.745 376.547 523.862C376.262 523.979 375.956 524.037 375.647 524.035Z" fill="#000201"/>
<path d="M364.233 522.284C363.806 522.284 363.396 522.115 363.094 521.813C362.792 521.511 362.623 521.102 362.623 520.676V329.748H269.435V520.676C269.435 521.102 269.265 521.511 268.963 521.813C268.661 522.115 268.251 522.284 267.824 522.284C267.397 522.284 266.988 522.115 266.686 521.813C266.384 521.511 266.214 521.102 266.214 520.676V328.119C266.214 327.693 266.384 327.284 266.686 326.982C266.988 326.681 267.397 326.511 267.824 326.511H364.233C364.66 326.511 365.07 326.681 365.372 326.982C365.673 327.284 365.843 327.693 365.843 328.119V520.676C365.843 521.102 365.673 521.511 365.372 521.813C365.07 522.115 364.66 522.284 364.233 522.284Z" fill="#000201"/>
<path d="M386.45 406.486H245.608V442.31H386.45V406.486Z" fill="#FFD297"/>
<path d="M386.45 428.265H245.608V442.31H386.45V428.265Z" fill="#F9A948"/>
<path d="M386.45 444.651H245.607C245.299 444.654 244.993 444.595 244.707 444.478C244.422 444.361 244.162 444.189 243.944 443.971C243.726 443.753 243.553 443.494 243.436 443.209C243.32 442.924 243.261 442.618 243.264 442.31V406.486C243.261 406.177 243.32 405.872 243.436 405.587C243.553 405.301 243.726 405.042 243.944 404.824C244.162 404.606 244.422 404.434 244.707 404.317C244.993 404.201 245.299 404.142 245.607 404.145H386.45C386.758 404.142 387.064 404.201 387.35 404.317C387.635 404.434 387.895 404.606 388.113 404.824C388.331 405.042 388.504 405.301 388.621 405.587C388.738 405.872 388.796 406.177 388.794 406.486V442.31C388.796 442.618 388.738 442.924 388.621 443.209C388.504 443.494 388.331 443.753 388.113 443.971C387.895 444.189 387.635 444.361 387.35 444.478C387.064 444.595 386.758 444.654 386.45 444.651ZM247.951 439.969H384.106V408.826H247.951V439.969Z" fill="#000201"/>
<path d="M364.233 433.15C369.073 433.15 372.997 429.232 372.997 424.398C372.997 419.564 369.073 415.645 364.233 415.645C359.392 415.645 355.469 419.564 355.469 424.398C355.469 429.232 359.392 433.15 364.233 433.15Z" fill="white"/>
<path d="M364.233 434.229C362.286 434.229 360.382 433.653 358.763 432.572C357.145 431.492 355.883 429.957 355.138 428.16C354.392 426.364 354.197 424.387 354.577 422.48C354.957 420.573 355.895 418.821 357.272 417.446C358.648 416.071 360.403 415.135 362.312 414.755C364.222 414.376 366.201 414.571 368 415.315C369.799 416.059 371.337 417.319 372.418 418.936C373.5 420.553 374.078 422.453 374.078 424.398C374.078 425.689 373.823 426.967 373.328 428.16C372.833 429.353 372.108 430.437 371.194 431.35C370.28 432.263 369.195 432.987 368 433.481C366.806 433.975 365.526 434.229 364.233 434.229ZM364.233 416.724C362.713 416.724 361.227 417.174 359.964 418.017C358.7 418.86 357.715 420.059 357.134 421.461C356.552 422.863 356.4 424.406 356.696 425.895C356.993 427.383 357.725 428.751 358.799 429.824C359.874 430.897 361.243 431.628 362.734 431.924C364.224 432.22 365.769 432.068 367.173 431.487C368.578 430.907 369.778 429.923 370.622 428.661C371.466 427.399 371.917 425.916 371.917 424.398C371.917 423.39 371.718 422.392 371.332 421.461C370.946 420.53 370.38 419.684 369.666 418.972C368.953 418.259 368.106 417.694 367.173 417.308C366.241 416.923 365.242 416.724 364.233 416.724Z" fill="#000201"/>
<path d="M401.94 425.619H540.54C541.8 425.628 543.009 426.118 543.919 426.988C544.828 427.859 545.37 429.044 545.432 430.301C545.419 430.929 545.282 431.548 545.029 432.124C544.776 432.699 544.412 433.219 543.958 433.653C543.503 434.088 542.968 434.429 542.381 434.657C541.795 434.885 541.17 434.996 540.54 434.982H401.94C400.681 434.973 399.472 434.483 398.562 433.613C397.653 432.742 397.111 431.557 397.049 430.301C397.111 429.044 397.653 427.859 398.562 426.988C399.472 426.118 400.681 425.628 401.94 425.619Z" fill="#94B5BF"/>
<path d="M277.812 418.19H245.607C245.31 418.19 245.025 418.072 244.815 417.862C244.605 417.652 244.486 417.367 244.486 417.07C244.486 416.773 244.605 416.488 244.815 416.278C245.025 416.069 245.31 415.951 245.607 415.951H277.812C278.109 415.951 278.394 416.069 278.604 416.278C278.815 416.488 278.933 416.773 278.933 417.07C278.933 417.367 278.815 417.652 278.604 417.862C278.394 418.072 278.109 418.19 277.812 418.19Z" fill="#000201"/>
<path d="M263.136 423.889H245.607C245.31 423.889 245.025 423.771 244.815 423.561C244.605 423.351 244.486 423.066 244.486 422.769C244.486 422.472 244.605 422.188 244.815 421.978C245.025 421.768 245.31 421.65 245.607 421.65H263.136C263.434 421.65 263.719 421.768 263.929 421.978C264.139 422.188 264.257 422.472 264.257 422.769C264.257 423.066 264.139 423.351 263.929 423.561C263.719 423.771 263.434 423.889 263.136 423.889Z" fill="#000201"/>
<path d="M311.035 353.665C309.725 353.665 308.444 353.277 307.355 352.55C306.265 351.823 305.416 350.79 304.915 349.581C304.414 348.372 304.282 347.042 304.538 345.759C304.794 344.476 305.424 343.297 306.351 342.372C307.277 341.447 308.458 340.817 309.743 340.561C311.028 340.306 312.359 340.437 313.57 340.938C314.78 341.438 315.815 342.286 316.543 343.374C317.271 344.462 317.659 345.741 317.659 347.049C317.654 348.802 316.954 350.482 315.713 351.721C314.472 352.961 312.79 353.659 311.035 353.665ZM311.035 342.673C310.168 342.673 309.321 342.93 308.6 343.411C307.88 343.892 307.318 344.575 306.986 345.375C306.655 346.174 306.568 347.054 306.737 347.903C306.906 348.752 307.323 349.532 307.936 350.144C308.549 350.756 309.33 351.173 310.18 351.342C311.03 351.511 311.911 351.424 312.712 351.093C313.513 350.761 314.197 350.2 314.679 349.481C315.16 348.761 315.417 347.915 315.417 347.049C315.417 346.475 315.304 345.906 315.084 345.375C314.863 344.844 314.541 344.361 314.134 343.955C313.727 343.549 313.244 343.226 312.712 343.006C312.18 342.786 311.61 342.673 311.035 342.673Z" fill="#000201"/>
<path d="M296.156 392.95H295.85C295.566 392.864 295.327 392.672 295.182 392.414C295.038 392.156 295 391.851 295.076 391.565L306.897 351.466C306.937 351.325 307.005 351.192 307.096 351.076C307.188 350.961 307.301 350.864 307.43 350.792C307.558 350.721 307.7 350.675 307.847 350.658C307.993 350.641 308.141 350.653 308.283 350.693C308.567 350.778 308.807 350.97 308.951 351.229C309.096 351.487 309.134 351.791 309.058 352.077L297.236 392.176C297.159 392.402 297.014 392.597 296.82 392.736C296.627 392.875 296.394 392.949 296.156 392.95Z" fill="#000201"/>
<path d="M324.08 392.95C323.836 392.947 323.6 392.866 323.406 392.72C323.211 392.573 323.069 392.368 322.999 392.135L311.789 352.647C311.705 352.496 311.657 352.328 311.648 352.156C311.64 351.984 311.672 351.812 311.741 351.653C311.81 351.495 311.915 351.355 312.047 351.244C312.179 351.133 312.336 351.054 312.504 351.014C312.672 350.973 312.847 350.972 313.015 351.01C313.184 351.048 313.341 351.124 313.475 351.233C313.609 351.342 313.716 351.48 313.788 351.637C313.86 351.794 313.894 351.966 313.888 352.138L325.099 391.627C325.175 391.912 325.137 392.217 324.992 392.475C324.847 392.733 324.608 392.925 324.324 393.011L324.08 392.95Z" fill="#000201"/>
<path d="M353.226 391.83H273.531V417.274H353.226V391.83Z" fill="white"/>
<path d="M353.226 419.614H273.531C273.223 419.617 272.917 419.558 272.631 419.442C272.346 419.325 272.086 419.153 271.868 418.935C271.65 418.717 271.477 418.458 271.36 418.173C271.243 417.887 271.185 417.582 271.187 417.274V391.83C271.185 391.522 271.243 391.216 271.36 390.931C271.477 390.646 271.65 390.387 271.868 390.169C272.086 389.951 272.346 389.779 272.631 389.662C272.917 389.545 273.223 389.487 273.531 389.489H353.226C353.535 389.487 353.841 389.545 354.127 389.662C354.412 389.779 354.672 389.951 354.89 390.169C355.108 390.387 355.281 390.646 355.397 390.931C355.514 391.216 355.573 391.522 355.57 391.83V417.274C355.573 417.582 355.514 417.887 355.397 418.173C355.281 418.458 355.108 418.717 354.89 418.935C354.672 419.153 354.412 419.325 354.127 419.442C353.841 419.558 353.535 419.617 353.226 419.614ZM275.773 414.933H350.781V394.171H275.773V414.933Z" fill="#000201"/>
<path d="M532.184 383.485H493.457V422.159H532.184V383.485Z" fill="#99CDDD"/>
<path d="M483.062 398.344H459.215V422.159H483.062V398.344Z" fill="#99CDDD"/>
<path d="M505.075 407.503C504.939 407.512 504.802 407.492 504.675 407.444C504.547 407.396 504.431 407.322 504.334 407.225C504.238 407.129 504.163 407.013 504.115 406.885C504.067 406.758 504.047 406.621 504.056 406.486C504.052 406.276 504.107 406.069 504.215 405.889C504.324 405.709 504.48 405.563 504.667 405.468L524.846 398.344C525.111 398.26 525.398 398.279 525.649 398.398C525.9 398.517 526.097 398.726 526.2 398.983C526.303 399.241 526.305 399.528 526.205 399.787C526.105 400.046 525.911 400.257 525.661 400.379L505.075 407.503Z" fill="#000201"/>
<path d="M508.336 412.388C508.2 412.397 508.064 412.377 507.936 412.329C507.808 412.281 507.692 412.207 507.596 412.11C507.499 412.014 507.424 411.898 507.376 411.771C507.328 411.643 507.308 411.507 507.317 411.371C507.313 411.161 507.369 410.954 507.477 410.774C507.585 410.594 507.741 410.448 507.929 410.353L518.935 406.689C519.069 406.637 519.215 406.617 519.358 406.633C519.501 406.648 519.639 406.698 519.759 406.778C519.879 406.858 519.978 406.966 520.047 407.092C520.117 407.218 520.155 407.359 520.158 407.503C520.151 407.881 520.006 408.243 519.75 408.521L508.744 412.185L508.336 412.388Z" fill="#000201"/>
<path d="M445.966 425.619H432.106L465.941 316.517H479.801L445.966 425.619Z" fill="white"/>
<path d="M468.183 425.619H454.527L488.362 316.517H502.222L468.183 425.619Z" fill="white"/>
<path d="M537.483 427.899H401.94C401.335 427.899 400.754 427.659 400.326 427.231C399.898 426.804 399.657 426.224 399.657 425.619V316.517C399.657 315.913 399.898 315.333 400.326 314.905C400.754 314.478 401.335 314.238 401.94 314.238H537.483C538.088 314.238 538.669 314.478 539.097 314.905C539.525 315.333 539.766 315.913 539.766 316.517V425.619C539.766 426.224 539.525 426.804 539.097 427.231C538.669 427.659 538.088 427.899 537.483 427.899ZM404.223 423.38H535.2V318.797H404.223V423.38Z" fill="#000201"/>
<path d="M528.311 501.339C534.953 501.339 540.337 495.962 540.337 489.33C540.337 482.697 534.953 477.32 528.311 477.32C521.669 477.32 516.285 482.697 516.285 489.33C516.285 495.962 521.669 501.339 528.311 501.339Z" fill="#94B5BF"/>
<path d="M526.884 466.736C528.91 466.736 530.553 465.095 530.553 463.072C530.553 461.048 528.91 459.408 526.884 459.408C524.858 459.408 523.215 461.048 523.215 463.072C523.215 465.095 524.858 466.736 526.884 466.736Z" fill="#94B5BF"/>
<path d="M497.737 479.763C500.214 479.763 502.221 477.758 502.221 475.285C502.221 472.812 500.214 470.807 497.737 470.807C495.261 470.807 493.253 472.812 493.253 475.285C493.253 477.758 495.261 479.763 497.737 479.763Z" fill="#94B5BF"/>
<path d="M479.189 501.95C480.428 501.95 481.431 500.947 481.431 499.711C481.431 498.474 480.428 497.472 479.189 497.472C477.951 497.472 476.947 498.474 476.947 499.711C476.947 500.947 477.951 501.95 479.189 501.95Z" fill="#94B5BF"/>
<path d="M488.158 511.516C490.972 511.516 493.253 509.238 493.253 506.428C493.253 503.617 490.972 501.339 488.158 501.339C485.344 501.339 483.062 503.617 483.062 506.428C483.062 509.238 485.344 511.516 488.158 511.516Z" fill="#94B5BF"/>
<path d="M502.833 501.95C505.647 501.95 507.929 499.671 507.929 496.861C507.929 494.051 505.647 491.772 502.833 491.772C500.019 491.772 497.737 494.051 497.737 496.861C497.737 499.671 500.019 501.95 502.833 501.95Z" fill="#94B5BF"/>
<path d="M562.757 503.985H463.087V516.605H562.757V503.985Z" fill="#94B5BF"/>
<path d="M563.165 524.035H198.524C198.216 524.037 197.91 523.979 197.624 523.862C197.338 523.745 197.079 523.573 196.861 523.355C196.643 523.137 196.47 522.878 196.353 522.593C196.236 522.308 196.178 522.002 196.18 521.694V493.197C196.18 492.576 196.427 491.981 196.867 491.542C197.306 491.103 197.903 490.856 198.524 490.856C199.146 490.856 199.742 491.103 200.182 491.542C200.621 491.981 200.868 492.576 200.868 493.197V519.353H560.821V278.454C560.821 277.833 561.068 277.238 561.507 276.799C561.947 276.36 562.543 276.113 563.165 276.113C563.786 276.113 564.383 276.36 564.822 276.799C565.262 277.238 565.509 277.833 565.509 278.454V521.694C565.511 522.002 565.453 522.308 565.336 522.593C565.219 522.878 565.046 523.137 564.828 523.355C564.61 523.573 564.351 523.745 564.065 523.862C563.779 523.979 563.473 524.037 563.165 524.035Z" fill="#000201"/>
<path d="M608.21 516.605H80.1028V541.031H608.21V516.605Z" fill="#D9E1E4"/>
<path d="M608.21 516.605H80.1028V528.411H608.21V516.605Z" fill="white"/>
<path d="M608.21 545H80.1027C79.7942 545.003 79.4881 544.944 79.2025 544.827C78.9169 544.711 78.6574 544.538 78.4392 544.32C78.221 544.102 78.0485 543.843 77.9316 543.558C77.8148 543.273 77.756 542.967 77.7588 542.659V518.233C77.756 517.925 77.8148 517.62 77.9316 517.334C78.0485 517.049 78.221 516.79 78.4392 516.572C78.6574 516.354 78.9169 516.182 79.2025 516.065C79.4881 515.949 79.7942 515.89 80.1027 515.893H608.21C608.518 515.89 608.824 515.949 609.11 516.065C609.396 516.182 609.655 516.354 609.873 516.572C610.092 516.79 610.264 517.049 610.381 517.334C610.498 517.62 610.556 517.925 610.554 518.233V542.659C610.556 542.967 610.498 543.273 610.381 543.558C610.264 543.843 610.092 544.102 609.873 544.32C609.655 544.538 609.396 544.711 609.11 544.827C608.824 544.944 608.518 545.003 608.21 545ZM82.4467 540.318H605.866V520.574H82.4467V540.318Z" fill="#000201"/>
<path d="M593.555 249.835L511.699 153.719H248.481L172.414 243.057C170.246 245.081 168.204 247.236 166.3 249.509C165.521 250.704 164.981 252.038 164.71 253.438H164.526V254.598C164.404 255.68 164.404 256.773 164.526 257.855V262.842C164.765 269.058 167.425 274.937 171.938 279.225C176.452 283.513 182.463 285.872 188.693 285.801C194.922 285.729 200.878 283.232 205.291 278.841C209.705 274.451 212.228 268.513 212.323 262.292V258.832V262.903C212.562 269.12 215.221 274.998 219.735 279.286C224.248 283.574 230.26 285.934 236.489 285.862C242.719 285.79 248.674 283.293 253.088 278.902C257.501 274.512 260.024 268.574 260.12 262.353V259.463V262.903C260.359 269.12 263.018 274.998 267.531 279.286C272.045 283.574 278.057 285.934 284.286 285.862C290.515 285.79 296.471 283.293 300.884 278.902C305.298 274.512 307.821 268.574 307.916 262.353V260.053V262.903C308.155 269.12 310.815 274.998 315.328 279.286C319.842 283.574 325.853 285.934 332.083 285.862C338.312 285.79 344.267 283.293 348.681 278.902C353.095 274.512 355.618 268.574 355.713 262.353V260.542V262.801C355.952 269.018 358.611 274.896 363.125 279.184C367.638 283.472 373.65 285.832 379.879 285.76C386.109 285.689 392.064 283.191 396.478 278.801C400.891 274.41 403.414 268.472 403.51 262.251V261.132V262.801C403.749 269.018 406.408 274.896 410.921 279.184C415.435 283.472 421.447 285.832 427.676 285.76C433.905 285.689 439.861 283.191 444.274 278.801C448.688 274.41 451.211 268.472 451.306 262.251V261.722V262.801C451.54 269.016 454.193 274.894 458.701 279.186C463.209 283.477 469.215 285.842 475.443 285.779C481.67 285.715 487.627 283.227 492.046 278.845C496.464 274.462 498.996 268.531 499.103 262.312V262.801C499.342 269.018 502.001 274.896 506.515 279.184C511.028 283.472 517.04 285.832 523.269 285.76C529.499 285.689 535.454 283.191 539.868 278.801C544.281 274.41 546.804 268.472 546.9 262.251V253.356V262.781C546.851 265.97 547.442 269.136 548.639 272.093C549.836 275.05 551.613 277.738 553.867 279.997C556.121 282.257 558.806 284.042 561.762 285.249C564.719 286.455 567.887 287.058 571.081 287.021C574.274 286.984 577.428 286.309 580.356 285.035C583.284 283.761 585.926 281.914 588.127 279.603C590.329 277.292 592.044 274.565 593.172 271.581C594.301 268.597 594.819 265.418 594.696 262.231V253.356L593.555 249.835ZM276.263 154.697H275.162L275.386 154.371L276.263 154.697Z" fill="#D6393A"/>
<path d="M448.412 154.106L491.827 253.438C491.827 253.438 498.879 273.65 480.29 285.781L488.708 282.728C488.708 282.728 506.481 269.884 494.599 241.713C482.716 213.542 455.159 155.348 455.159 155.348L448.412 154.106Z" fill="#A01D29"/>
<path d="M391.545 154.697L402.694 247.555L403.347 259.972C403.347 259.972 399.922 280.143 416.697 284.112L423.627 286.779C423.627 286.779 440.667 288.082 447.21 275.014C453.752 261.946 450.491 253.438 450.491 253.438L423.627 155.348L391.545 154.697Z" fill="white"/>
<path d="M446.537 275.014C441.645 283.054 431.882 288.265 422.649 286.453C426.583 287.227 432.249 284.235 435.286 281.996C439.171 278.99 442.021 274.849 443.439 270.149C447.678 258.201 442.501 245.479 439.362 233.653L430.068 199.314L418.348 155.348L390.832 154.798L422.914 155.45L436.57 205.299L445.212 236.869C448.596 249.224 453.711 262.027 446.924 274.281L446.537 275.014Z" fill="#C8D3D9"/>
<path d="M506.135 154.697L587.318 255.392C587.318 255.392 598.121 280.815 570.462 286.412C570.462 286.412 595.186 289.405 594.533 256.043L592.495 249.509L510.721 154.697H506.135Z" fill="#A01D29"/>
<path d="M275.345 153.719L211.834 249.835V259.646C211.834 259.646 207.9 285.15 232.787 287.105C257.674 289.059 260.038 265.59 260.038 265.59L259.631 254.415L260.935 247.229L303.493 154.371L275.345 153.719Z" fill="white"/>
<path d="M333.272 154.045L307.774 249.509L306.449 258.669C306.449 258.669 306.857 282.28 324.324 285.842C341.792 289.405 349.272 280.021 351.107 276.866C352.941 273.711 354.918 258.018 354.918 258.018L365.395 153.394L333.272 154.045Z" fill="white"/>
<path d="M453.1 155.348L497.615 248.858L498.94 266.363C498.94 266.363 500.306 287.43 519.587 286.718C538.869 286.005 546.084 267.625 546.084 267.625V255.412L482.573 154.697L453.1 155.348Z" fill="white"/>
<path d="M477.396 155.633L535.587 246.517C538.077 250.333 539.782 254.605 540.6 259.085C541.419 263.566 541.337 268.164 540.357 272.612C539.215 277.68 536.831 282.403 532.204 284.479C532.204 284.479 549.977 279.553 546.329 255.697C545.045 247.392 534.099 234.04 524.459 218.753C505.483 188.689 482.226 153.842 482.226 153.842L477.396 155.633Z" fill="#C8D3D9"/>
<path d="M387.999 153.394L397.456 252.786C397.456 252.786 401.166 284.458 376.727 285.944C376.727 285.944 404.692 290.728 403.693 254.435C402.694 218.142 391.464 154.045 391.464 154.045L387.999 153.394Z" fill="#A01D29"/>
<path d="M359.464 154.697L347.683 248.858C349.771 255.588 349.695 262.803 347.464 269.488C345.234 276.173 340.962 281.992 335.249 286.128L347.683 280.896L354.225 266.505C354.225 266.505 365.374 155.348 364.05 154.697C362.54 154.356 360.973 154.356 359.464 154.697Z" fill="#C8D3D9"/>
<path d="M328.034 154.045L301.19 252.786C301.19 252.786 308.406 275.014 288.655 286.82C288.655 286.82 311.667 279.594 306.775 254.964C306.775 254.964 335.901 155.348 334.597 154.697C332.443 154.216 330.24 153.998 328.034 154.045Z" fill="#A01D29"/>
<path d="M298.581 154.697L252.741 252.135C252.741 252.135 264.42 273.589 238.943 287.044C238.943 287.044 262.566 282.199 259.325 254.74L304.492 154.045L298.377 153.597L298.581 154.697Z" fill="#C8D3D9"/>
<path d="M268.782 153.862L204.945 250.812C204.945 250.812 208.226 281.548 185.969 287.451C185.969 287.451 215.421 284.845 211.508 254.761L274.347 154.697L268.782 153.862Z" fill="#A01D29"/>
<path d="M378.969 288.733C372.247 288.739 365.794 286.095 361.012 281.377C356.23 276.659 353.505 270.247 353.43 263.534V254.089C353.475 253.686 353.668 253.314 353.97 253.043C354.273 252.773 354.665 252.623 355.071 252.623C355.477 252.623 355.869 252.773 356.172 253.043C356.475 253.314 356.667 253.686 356.712 254.089V263.513C356.782 269.408 359.195 275.034 363.418 279.153C367.642 283.272 373.331 285.546 379.234 285.476C385.137 285.406 390.771 282.997 394.895 278.779C399.02 274.561 401.297 268.879 401.227 262.984V254.089C401.272 253.686 401.464 253.314 401.767 253.043C402.07 252.773 402.462 252.623 402.868 252.623C403.274 252.623 403.666 252.773 403.968 253.043C404.271 253.314 404.463 253.686 404.509 254.089V262.964C404.579 269.721 401.962 276.23 397.23 281.062C392.499 285.893 386.042 288.652 379.275 288.733H378.969Z" fill="#000201"/>
<path d="M426.766 288.733C420.044 288.739 413.591 286.095 408.809 281.377C404.027 276.659 401.302 270.247 401.227 263.534V254.089C401.272 253.686 401.464 253.314 401.767 253.043C402.07 252.773 402.462 252.623 402.868 252.623C403.274 252.623 403.666 252.773 403.968 253.043C404.271 253.314 404.463 253.686 404.508 254.089V263.513C404.579 269.408 406.991 275.034 411.215 279.153C415.439 283.272 421.128 285.546 427.031 285.476C432.934 285.406 438.567 282.997 442.692 278.779C446.816 274.561 449.094 268.879 449.024 262.984V254.089C449.069 253.686 449.261 253.314 449.564 253.043C449.866 252.773 450.258 252.623 450.664 252.623C451.07 252.623 451.462 252.773 451.765 253.043C452.068 253.314 452.26 253.686 452.305 254.089V262.964C452.376 269.721 449.758 276.23 445.027 281.062C440.296 285.893 433.838 288.652 427.072 288.733H426.766Z" fill="#000201"/>
<path d="M474.563 288.733C467.84 288.739 461.387 286.095 456.605 281.377C451.823 276.659 449.099 270.247 449.024 263.534V254.089C449.069 253.686 449.261 253.314 449.564 253.043C449.866 252.773 450.258 252.623 450.664 252.623C451.07 252.623 451.462 252.773 451.765 253.043C452.068 253.314 452.26 253.686 452.305 254.089V263.513C452.375 269.408 454.788 275.034 459.012 279.153C463.235 283.272 468.925 285.546 474.828 285.476C480.731 285.406 486.364 282.997 490.488 278.779C494.613 274.561 496.89 268.879 496.82 262.984V254.089C496.865 253.686 497.058 253.314 497.36 253.043C497.663 252.773 498.055 252.623 498.461 252.623C498.867 252.623 499.259 252.773 499.562 253.043C499.864 253.314 500.057 253.686 500.102 254.089V262.964C500.173 269.714 497.56 276.217 492.838 281.048C488.116 285.878 481.668 288.642 474.909 288.733H474.563Z" fill="#000201"/>
<path d="M522.359 288.733C515.637 288.739 509.184 286.095 504.402 281.377C499.62 276.659 496.895 270.247 496.82 263.534V254.089C496.865 253.686 497.058 253.314 497.36 253.043C497.663 252.773 498.055 252.623 498.461 252.623C498.867 252.623 499.259 252.773 499.562 253.043C499.864 253.314 500.057 253.686 500.102 254.089V263.513C500.172 269.408 502.584 275.034 506.808 279.153C511.032 283.272 516.721 285.546 522.624 285.476C528.527 285.406 534.161 282.997 538.285 278.779C542.409 274.561 544.687 268.879 544.617 262.984V254.089C544.662 253.686 544.854 253.314 545.157 253.043C545.459 252.773 545.851 252.623 546.258 252.623C546.664 252.623 547.056 252.773 547.358 253.043C547.661 253.314 547.853 253.686 547.898 254.089V262.964C547.969 269.721 545.351 276.23 540.62 281.062C535.889 285.893 529.431 288.652 522.665 288.733H522.359Z" fill="#000201"/>
<path d="M570.156 288.733C563.434 288.739 556.981 286.095 552.199 281.377C547.417 276.659 544.692 270.247 544.617 263.534V254.089C544.662 253.686 544.854 253.314 545.157 253.043C545.46 252.773 545.852 252.623 546.258 252.623C546.664 252.623 547.056 252.773 547.358 253.043C547.661 253.314 547.853 253.686 547.898 254.089V263.513C547.969 269.408 550.381 275.034 554.605 279.153C558.829 283.272 564.518 285.546 570.421 285.476C576.324 285.406 581.957 282.997 586.082 278.779C590.206 274.561 592.484 268.879 592.414 262.984V254.089C592.459 253.686 592.651 253.314 592.954 253.043C593.256 252.773 593.648 252.623 594.054 252.623C594.461 252.623 594.852 252.773 595.155 253.043C595.458 253.314 595.65 253.686 595.695 254.089V262.964C595.766 269.721 593.148 276.23 588.417 281.062C583.686 285.893 577.228 288.652 570.462 288.733H570.156Z" fill="#000201"/>
<path d="M331.173 288.733C324.468 288.712 318.041 286.057 313.281 281.341C308.521 276.626 305.81 270.229 305.735 263.534V254.089C305.781 253.686 305.973 253.314 306.276 253.043C306.578 252.773 306.97 252.623 307.376 252.623C307.782 252.623 308.174 252.773 308.477 253.043C308.78 253.314 308.972 253.686 309.017 254.089V263.513C309.087 269.408 311.5 275.034 315.723 279.153C319.947 283.272 325.636 285.546 331.54 285.476C337.443 285.406 343.076 282.997 347.2 278.779C351.325 274.561 353.602 268.879 353.532 262.984V254.089C353.577 253.686 353.769 253.314 354.072 253.043C354.375 252.773 354.767 252.623 355.173 252.623C355.579 252.623 355.971 252.773 356.274 253.043C356.576 253.314 356.769 253.686 356.814 254.089V262.964C356.884 269.721 354.267 276.23 349.536 281.062C344.805 285.893 338.347 288.652 331.58 288.733H331.173Z" fill="#000201"/>
<path d="M283.315 288.733C276.593 288.739 270.14 286.095 265.358 281.377C260.576 276.659 257.851 270.247 257.776 263.534V254.089C257.821 253.686 258.013 253.314 258.316 253.043C258.619 252.773 259.011 252.623 259.417 252.623C259.823 252.623 260.215 252.773 260.517 253.043C260.82 253.314 261.012 253.686 261.057 254.089V263.513C261.092 266.443 261.705 269.337 262.859 272.03C264.014 274.724 265.689 277.164 267.788 279.211C269.887 281.258 272.369 282.872 275.093 283.961C277.816 285.05 280.728 285.592 283.661 285.558C286.595 285.523 289.493 284.911 292.19 283.758C294.887 282.605 297.33 280.933 299.38 278.836C301.43 276.74 303.046 274.261 304.137 271.542C305.227 268.822 305.77 265.914 305.736 262.984V254.089C305.781 253.686 305.973 253.314 306.276 253.043C306.578 252.773 306.97 252.623 307.376 252.623C307.783 252.623 308.174 252.773 308.477 253.043C308.78 253.314 308.972 253.686 309.017 254.089V262.964C309.088 269.721 306.47 276.23 301.739 281.062C297.008 285.893 290.55 288.652 283.784 288.733H283.315Z" fill="#000201"/>
<path d="M235.579 288.733C228.857 288.739 222.404 286.095 217.622 281.377C212.84 276.659 210.115 270.247 210.04 263.534V254.089C210.085 253.686 210.278 253.314 210.58 253.043C210.883 252.773 211.275 252.623 211.681 252.623C212.087 252.623 212.479 252.773 212.782 253.043C213.085 253.314 213.277 253.686 213.322 254.089V263.513C213.392 269.408 215.804 275.034 220.028 279.153C224.252 283.272 229.941 285.546 235.844 285.476C241.747 285.406 247.381 282.997 251.505 278.779C255.63 274.561 257.907 268.879 257.837 262.984V254.089C257.882 253.686 258.074 253.314 258.377 253.043C258.68 252.773 259.072 252.623 259.478 252.623C259.884 252.623 260.276 252.773 260.578 253.043C260.881 253.314 261.073 253.686 261.118 254.089V262.964C261.189 269.721 258.572 276.23 253.84 281.062C249.109 285.893 242.652 288.652 235.885 288.733H235.579Z" fill="#000201"/>
<path d="M187.783 288.733C181.06 288.739 174.607 286.095 169.825 281.377C165.043 276.659 162.319 270.247 162.244 263.534V254.089C162.289 253.686 162.481 253.314 162.784 253.043C163.086 252.773 163.478 252.623 163.884 252.623C164.291 252.623 164.682 252.773 164.985 253.043C165.288 253.314 165.48 253.686 165.525 254.089V263.513C165.595 269.408 168.008 275.034 172.232 279.153C176.455 283.272 182.145 285.546 188.048 285.476C193.951 285.406 199.584 282.997 203.709 278.779C207.833 274.561 210.111 268.879 210.04 262.984V254.089C210.085 253.686 210.278 253.314 210.58 253.043C210.883 252.773 211.275 252.623 211.681 252.623C212.087 252.623 212.479 252.773 212.782 253.043C213.085 253.314 213.277 253.686 213.322 254.089V262.964C213.393 269.721 210.775 276.23 206.044 281.062C201.313 285.893 194.855 288.652 188.088 288.733H187.783Z" fill="#000201"/>
<path d="M355.224 250.812H355.041C354.827 250.792 354.619 250.729 354.43 250.627C354.241 250.526 354.074 250.388 353.939 250.221C353.804 250.054 353.704 249.862 353.645 249.656C353.585 249.45 353.568 249.234 353.593 249.021L363.397 154.208C363.449 153.776 363.667 153.381 364.006 153.107C364.345 152.833 364.777 152.702 365.211 152.742C365.646 152.789 366.045 153.005 366.32 153.345C366.596 153.685 366.725 154.12 366.679 154.554L356.855 249.367C356.814 249.768 356.623 250.139 356.321 250.407C356.019 250.675 355.628 250.819 355.224 250.812Z" fill="#000201"/>
<path d="M396.457 193.615C396.056 193.604 395.671 193.45 395.372 193.182C395.073 192.913 394.88 192.547 394.827 192.149L390.913 154.534C390.892 154.32 390.913 154.104 390.975 153.898C391.037 153.692 391.139 153.501 391.276 153.335C391.412 153.168 391.58 153.03 391.769 152.929C391.959 152.827 392.167 152.764 392.381 152.742C392.595 152.721 392.811 152.742 393.017 152.804C393.223 152.866 393.415 152.968 393.582 153.104C393.748 153.24 393.886 153.408 393.988 153.597C394.09 153.787 394.153 153.994 394.175 154.208L398.108 191.803C398.148 192.235 398.017 192.664 397.742 192.999C397.468 193.335 397.072 193.548 396.641 193.595L396.457 193.615Z" fill="#000201"/>
<path d="M398.557 214.133C398.154 214.126 397.767 213.974 397.467 213.704C397.167 213.435 396.975 213.067 396.926 212.667L395.805 201.94C395.785 201.518 395.927 201.104 396.204 200.783C396.48 200.463 396.87 200.261 397.291 200.22C397.712 200.178 398.134 200.299 398.468 200.559C398.802 200.818 399.024 201.196 399.087 201.614L400.187 212.321C400.213 212.534 400.195 212.75 400.136 212.956C400.077 213.162 399.977 213.354 399.842 213.521C399.707 213.688 399.54 213.826 399.351 213.928C399.162 214.029 398.954 214.092 398.74 214.112H398.557V214.133Z" fill="#000201"/>
<path d="M402.348 250.812C401.944 250.809 401.554 250.659 401.254 250.389C400.953 250.119 400.762 249.748 400.717 249.346L398.496 227.668C398.474 227.455 398.495 227.239 398.557 227.033C398.62 226.827 398.722 226.636 398.858 226.469C398.994 226.303 399.162 226.165 399.352 226.064C399.541 225.962 399.749 225.899 399.963 225.877C400.177 225.856 400.394 225.877 400.6 225.939C400.806 226.001 400.997 226.103 401.164 226.239C401.331 226.375 401.469 226.543 401.57 226.732C401.672 226.921 401.735 227.129 401.757 227.343L403.999 249.021C404.045 249.45 403.918 249.879 403.647 250.215C403.375 250.551 402.981 250.766 402.552 250.812H402.348Z" fill="#000201"/>
<path d="M449.492 252.135C449.132 252.133 448.783 252.012 448.499 251.791C448.216 251.57 448.013 251.262 447.923 250.914L422.384 154.798C422.273 154.38 422.333 153.935 422.551 153.561C422.769 153.187 423.127 152.914 423.546 152.804C423.965 152.693 424.41 152.753 424.785 152.971C425.16 153.188 425.432 153.545 425.543 153.964L451.082 250.079C451.144 250.289 451.162 250.509 451.137 250.726C451.111 250.943 451.042 251.153 450.934 251.343C450.825 251.533 450.68 251.699 450.506 251.832C450.332 251.964 450.133 252.061 449.92 252.115C449.779 252.141 449.635 252.148 449.492 252.135Z" fill="#000201"/>
<path d="M497.941 252.135C497.631 252.132 497.328 252.04 497.068 251.87C496.808 251.701 496.602 251.461 496.474 251.178L452.591 155.063C452.411 154.666 452.395 154.214 452.548 153.806C452.701 153.398 453.009 153.067 453.406 152.885C453.601 152.797 453.812 152.747 454.026 152.74C454.241 152.733 454.455 152.769 454.655 152.844C454.856 152.92 455.04 153.034 455.196 153.181C455.352 153.328 455.478 153.504 455.566 153.699L499.368 249.815C499.475 250.066 499.518 250.34 499.494 250.612C499.47 250.884 499.38 251.146 499.231 251.375C499.082 251.604 498.879 251.793 498.64 251.926C498.401 252.058 498.133 252.13 497.86 252.135H497.941Z" fill="#000201"/>
<path d="M260.283 252.135C260.057 252.122 259.836 252.067 259.631 251.972C259.435 251.884 259.259 251.759 259.112 251.602C258.965 251.446 258.85 251.263 258.775 251.062C258.699 250.862 258.664 250.648 258.671 250.434C258.678 250.22 258.727 250.01 258.815 249.815L302.678 153.699C302.768 153.504 302.895 153.328 303.053 153.182C303.21 153.036 303.395 152.923 303.597 152.848C303.798 152.773 304.013 152.739 304.228 152.747C304.442 152.755 304.654 152.806 304.849 152.895C305.044 152.985 305.22 153.112 305.366 153.269C305.513 153.427 305.626 153.611 305.701 153.812C305.776 154.014 305.81 154.228 305.802 154.442C305.794 154.657 305.744 154.868 305.654 155.063L261.791 251.178C261.66 251.467 261.448 251.711 261.18 251.881C260.912 252.051 260.6 252.139 260.283 252.135Z" fill="#000201"/>
<path d="M254.433 187.712C254.22 187.715 254.008 187.675 253.811 187.596C253.613 187.516 253.433 187.398 253.281 187.248C253.13 187.099 253.009 186.921 252.927 186.724C252.845 186.528 252.802 186.317 252.802 186.104C252.808 185.781 252.9 185.465 253.067 185.188L273.307 154.147C273.415 153.96 273.558 153.797 273.729 153.666C273.901 153.535 274.096 153.439 274.305 153.384C274.513 153.33 274.731 153.317 274.944 153.346C275.158 153.376 275.363 153.447 275.549 153.557C275.923 153.777 276.194 154.136 276.305 154.555C276.415 154.974 276.356 155.42 276.14 155.796V155.918L255.901 186.979C255.743 187.22 255.524 187.415 255.266 187.543C255.008 187.672 254.721 187.73 254.433 187.712Z" fill="#000201"/>
<path d="M240.716 208.759C240.503 208.762 240.291 208.722 240.093 208.642C239.896 208.563 239.716 208.445 239.564 208.295C239.412 208.146 239.292 207.967 239.21 207.771C239.127 207.575 239.085 207.364 239.085 207.151C239.091 206.828 239.182 206.512 239.35 206.235L247.87 193.167C247.986 192.986 248.137 192.829 248.314 192.707C248.491 192.584 248.691 192.499 248.902 192.455C249.113 192.412 249.331 192.411 249.542 192.453C249.753 192.494 249.954 192.578 250.132 192.699C250.494 192.936 250.748 193.306 250.84 193.729C250.931 194.151 250.853 194.593 250.622 194.958L242.102 208.026C241.955 208.259 241.75 208.449 241.507 208.578C241.264 208.706 240.991 208.769 240.716 208.759Z" fill="#000201"/>
<path d="M212.486 252.135C212.053 252.13 211.64 251.957 211.332 251.654C211.024 251.35 210.846 250.939 210.835 250.507C210.836 250.186 210.936 249.873 211.121 249.611L234.214 214.133C234.471 213.815 234.836 213.605 235.24 213.541C235.644 213.477 236.057 213.566 236.399 213.788C236.741 214.011 236.989 214.353 237.093 214.747C237.198 215.142 237.152 215.561 236.965 215.924L213.852 251.382C213.705 251.611 213.504 251.801 213.265 251.932C213.026 252.064 212.759 252.133 212.486 252.135Z" fill="#000201"/>
<path d="M545.086 252.135C544.813 252.133 544.545 252.064 544.307 251.932C544.068 251.801 543.866 251.611 543.72 251.382L481.533 155.918C481.397 155.745 481.298 155.546 481.241 155.334C481.184 155.121 481.171 154.899 481.202 154.682C481.233 154.464 481.308 154.255 481.422 154.067C481.537 153.879 481.688 153.716 481.867 153.588C482.046 153.46 482.25 153.369 482.465 153.322C482.68 153.275 482.902 153.271 483.119 153.312C483.335 153.353 483.541 153.437 483.724 153.56C483.907 153.682 484.063 153.84 484.183 154.025V154.147L546.39 249.611C546.621 249.976 546.7 250.418 546.608 250.841C546.517 251.263 546.263 251.633 545.901 251.87C545.656 252.026 545.375 252.117 545.086 252.135Z" fill="#000201"/>
<path d="M592.882 252.135C592.645 252.129 592.412 252.074 592.198 251.972C591.984 251.87 591.793 251.725 591.639 251.545L509.804 155.429C509.507 155.114 509.347 154.693 509.36 154.259C509.374 153.826 509.559 153.416 509.875 153.119C510.191 152.822 510.613 152.663 511.047 152.676C511.481 152.69 511.891 152.874 512.189 153.19L512.29 153.312L594.126 249.428C594.265 249.591 594.371 249.779 594.438 249.983C594.504 250.187 594.529 250.402 594.512 250.616C594.495 250.83 594.436 251.038 594.338 251.229C594.24 251.419 594.106 251.589 593.942 251.728C593.652 251.991 593.274 252.136 592.882 252.135Z" fill="#000201"/>
<path d="M165.994 252.135C165.561 252.124 165.15 251.947 164.846 251.639C164.541 251.332 164.369 250.918 164.363 250.486C164.367 250.1 164.504 249.726 164.751 249.428L246.627 153.312C246.936 153.007 247.353 152.835 247.788 152.835C248.224 152.835 248.641 153.007 248.95 153.312C249.247 153.588 249.429 153.966 249.459 154.369C249.489 154.773 249.366 155.174 249.113 155.49L167.237 251.545C167.085 251.727 166.895 251.874 166.68 251.975C166.466 252.077 166.232 252.132 165.994 252.135Z" fill="#000201"/>
<path d="M318.373 213.359C318.231 213.379 318.086 213.379 317.944 213.359C317.734 213.303 317.536 213.205 317.364 213.072C317.191 212.939 317.047 212.773 316.939 212.583C316.831 212.394 316.761 212.185 316.734 211.969C316.708 211.753 316.724 211.533 316.783 211.324L332.029 153.984C332.084 153.777 332.179 153.583 332.309 153.412C332.439 153.242 332.601 153.099 332.787 152.991C332.972 152.883 333.177 152.813 333.39 152.784C333.602 152.756 333.819 152.769 334.026 152.824C334.234 152.879 334.428 152.974 334.599 153.104C334.77 153.234 334.913 153.396 335.021 153.581C335.129 153.766 335.199 153.971 335.228 154.183C335.256 154.396 335.243 154.612 335.188 154.819L320.003 212.158C319.91 212.515 319.697 212.828 319.401 213.047C319.104 213.265 318.741 213.376 318.373 213.359Z" fill="#000201"/>
<path d="M308.079 252.135C307.938 252.155 307.793 252.155 307.651 252.135C307.439 252.081 307.24 251.985 307.066 251.852C306.892 251.72 306.746 251.554 306.638 251.364C306.53 251.174 306.46 250.964 306.435 250.747C306.41 250.529 306.428 250.309 306.49 250.1L313.522 223.638C313.568 223.428 313.656 223.23 313.78 223.054C313.904 222.878 314.061 222.728 314.242 222.613C314.424 222.497 314.627 222.419 314.839 222.382C315.051 222.345 315.268 222.35 315.478 222.397C315.688 222.443 315.887 222.531 316.063 222.655C316.24 222.778 316.39 222.935 316.505 223.117C316.621 223.298 316.699 223.5 316.736 223.712C316.773 223.924 316.768 224.141 316.722 224.351C316.722 224.351 316.722 224.351 316.722 224.473L309.69 250.934C309.594 251.285 309.384 251.594 309.092 251.812C308.8 252.029 308.444 252.143 308.079 252.135Z" fill="#000201"/>
<path d="M511.047 155.999H247.829C247.397 155.999 246.982 155.828 246.676 155.522C246.37 155.217 246.199 154.803 246.199 154.371C246.199 153.939 246.37 153.525 246.676 153.219C246.982 152.914 247.397 152.742 247.829 152.742H511.047C511.261 152.742 511.473 152.785 511.671 152.866C511.869 152.948 512.049 153.068 512.2 153.219C512.351 153.371 512.472 153.55 512.554 153.748C512.635 153.945 512.678 154.157 512.678 154.371C512.678 154.585 512.635 154.796 512.554 154.994C512.472 155.192 512.351 155.371 512.2 155.522C512.049 155.673 511.869 155.793 511.671 155.875C511.473 155.957 511.261 155.999 511.047 155.999Z" fill="#000201"/>
<path d="M321.715 200.434C321.455 200.429 321.207 200.325 321.022 200.143C320.836 199.962 320.727 199.716 320.717 199.457C320.712 199.249 320.775 199.045 320.896 198.876C321.017 198.707 321.19 198.582 321.389 198.521L339.937 192.068C340.186 191.983 340.458 192 340.695 192.114C340.931 192.229 341.113 192.431 341.201 192.679C341.286 192.922 341.272 193.188 341.161 193.421C341.05 193.653 340.852 193.833 340.61 193.92L322.041 200.373C321.937 200.41 321.827 200.431 321.715 200.434Z" fill="#000201"/>
<path d="M324.854 204.953C324.72 204.973 324.584 204.966 324.453 204.934C324.321 204.901 324.198 204.843 324.089 204.762C323.869 204.6 323.723 204.357 323.682 204.088C323.642 203.818 323.71 203.543 323.873 203.323C324.035 203.104 324.278 202.958 324.548 202.917L334.74 199.538C334.978 199.444 335.243 199.446 335.48 199.545C335.716 199.644 335.904 199.832 336.003 200.067C336.099 200.308 336.097 200.576 335.998 200.816C335.899 201.055 335.711 201.247 335.473 201.35H335.351L325.16 204.749C325.066 204.829 324.964 204.897 324.854 204.953Z" fill="#000201"/>
<path d="M323.937 265.02C323.773 265.021 323.611 264.979 323.468 264.897L308.691 257.163C308.575 257.105 308.472 257.024 308.388 256.925C308.305 256.827 308.242 256.712 308.204 256.588C308.165 256.465 308.153 256.334 308.167 256.206C308.18 256.077 308.22 255.953 308.283 255.84C308.343 255.726 308.425 255.625 308.524 255.543C308.624 255.461 308.738 255.399 308.861 255.361C308.984 255.324 309.114 255.31 309.242 255.323C309.37 255.335 309.494 255.372 309.608 255.432L324.385 263.167C324.61 263.288 324.779 263.492 324.855 263.736C324.931 263.979 324.909 264.243 324.793 264.47C324.718 264.634 324.598 264.773 324.446 264.871C324.294 264.968 324.117 265.02 323.937 265.02Z" fill="#000201"/>
<path d="M315.234 265.162C315.069 265.163 314.908 265.121 314.765 265.04L308.222 261.6C307.996 261.475 307.827 261.267 307.751 261.021C307.675 260.774 307.698 260.507 307.815 260.277C307.872 260.161 307.953 260.058 308.052 259.975C308.151 259.891 308.266 259.828 308.39 259.79C308.514 259.752 308.644 259.74 308.773 259.753C308.902 259.767 309.026 259.807 309.139 259.87L315.662 263.31C315.888 263.434 316.056 263.644 316.129 263.891C316.201 264.139 316.173 264.406 316.049 264.633C315.97 264.792 315.847 264.925 315.696 265.019C315.545 265.112 315.371 265.162 315.193 265.162H315.234Z" fill="#000201"/>
<path d="M493.253 239.658C492.994 239.658 492.745 239.555 492.561 239.371C492.378 239.188 492.275 238.94 492.275 238.68C492.275 238.477 492.337 238.277 492.454 238.11C492.57 237.943 492.736 237.815 492.927 237.744L511.495 231.312C511.739 231.227 512.006 231.241 512.239 231.352C512.472 231.462 512.651 231.66 512.739 231.902C512.825 232.148 512.811 232.418 512.7 232.653C512.59 232.889 512.392 233.073 512.148 233.164L493.6 239.596C493.489 239.638 493.372 239.659 493.253 239.658Z" fill="#000201"/>
<path d="M497.065 244.828C496.805 244.817 496.559 244.708 496.377 244.523C496.195 244.338 496.091 244.09 496.086 243.83C496.093 243.63 496.158 243.437 496.274 243.274C496.39 243.111 496.552 242.986 496.739 242.914L506.93 239.515C507.173 239.418 507.445 239.421 507.686 239.524C507.927 239.627 508.117 239.822 508.214 240.065C508.311 240.308 508.308 240.579 508.205 240.82C508.101 241.06 507.907 241.25 507.664 241.347L497.472 244.746L497.065 244.828Z" fill="#000201"/>
<path d="M394.827 251.463C397.72 251.463 400.065 249.121 400.065 246.232C400.065 243.343 397.72 241.001 394.827 241.001C391.934 241.001 389.589 243.343 389.589 246.232C389.589 249.121 391.934 251.463 394.827 251.463Z" fill="#A01D29"/>
<path d="M441.971 261.274C444.864 261.274 447.21 258.932 447.21 256.043C447.21 253.154 444.864 250.812 441.971 250.812C439.078 250.812 436.733 253.154 436.733 256.043C436.733 258.932 439.078 261.274 441.971 261.274Z" fill="#C8D3D9"/>
<path d="M420.04 199.823C423.113 199.823 425.604 197.335 425.604 194.266C425.604 191.197 423.113 188.709 420.04 188.709C416.967 188.709 414.475 191.197 414.475 194.266C414.475 197.335 416.967 199.823 420.04 199.823Z" fill="#C8D3D9"/>
<path d="M418.735 186.084C419.636 186.084 420.366 185.355 420.366 184.455C420.366 183.556 419.636 182.827 418.735 182.827C417.835 182.827 417.105 183.556 417.105 184.455C417.105 185.355 417.835 186.084 418.735 186.084Z" fill="#C8D3D9"/>
<path d="M246.851 265.854C251.917 265.854 256.023 261.753 256.023 256.694C256.023 251.636 251.917 247.535 246.851 247.535C241.785 247.535 237.679 251.636 237.679 256.694C237.679 261.753 241.785 265.854 246.851 265.854Z" fill="#C8D3D9"/>
<path d="M584.057 261.926C586.95 261.926 589.295 259.584 589.295 256.694C589.295 253.805 586.95 251.463 584.057 251.463C581.164 251.463 578.819 253.805 578.819 256.694C578.819 259.584 581.164 261.926 584.057 261.926Z" fill="#A01D29"/>
<path d="M576.515 251.463C577.416 251.463 578.146 250.734 578.146 249.835C578.146 248.936 577.416 248.207 576.515 248.207C575.615 248.207 574.885 248.936 574.885 249.835C574.885 250.734 575.615 251.463 576.515 251.463Z" fill="#A01D29"/>
<path d="M434.104 248.186C435.184 248.186 436.06 247.311 436.06 246.232C436.06 245.153 435.184 244.278 434.104 244.278C433.023 244.278 432.147 245.153 432.147 246.232C432.147 247.311 433.023 248.186 434.104 248.186Z" fill="#C8D3D9"/>
<path d="M388.284 241.001C389.365 241.001 390.241 240.126 390.241 239.047C390.241 237.968 389.365 237.093 388.284 237.093C387.203 237.093 386.327 237.968 386.327 239.047C386.327 240.126 387.203 241.001 388.284 241.001Z" fill="#A01D29"/>
<path d="M239.004 245.601C240.816 245.601 242.285 244.134 242.285 242.324C242.285 240.514 240.816 239.047 239.004 239.047C237.191 239.047 235.722 240.514 235.722 242.324C235.722 244.134 237.191 245.601 239.004 245.601Z" fill="#C8D3D9"/>
<path d="M593.555 253.763H165.097C164.866 253.789 164.633 253.766 164.411 253.695C164.19 253.625 163.986 253.508 163.813 253.354C163.64 253.199 163.502 253.01 163.407 252.798C163.312 252.586 163.263 252.357 163.263 252.125C163.263 251.893 163.312 251.664 163.407 251.452C163.502 251.24 163.64 251.051 163.813 250.896C163.986 250.741 164.19 250.625 164.411 250.554C164.633 250.484 164.866 250.461 165.097 250.486H593.555C593.959 250.531 594.331 250.723 594.602 251.026C594.873 251.328 595.023 251.719 595.023 252.125C595.023 252.53 594.873 252.922 594.602 253.224C594.331 253.526 593.959 253.718 593.555 253.763Z" fill="#000201"/>
<path d="M427.235 184.455C426.301 184.451 425.379 184.661 424.539 185.068C423.699 185.475 422.964 186.069 422.389 186.804C421.815 187.539 421.416 188.395 421.225 189.308C421.033 190.22 421.053 191.164 421.283 192.068L428.03 219.038C428.358 220.365 429.123 221.544 430.203 222.386C431.282 223.227 432.612 223.682 433.981 223.679H437.691L427.235 184.455Z" fill="#C8D3D9"/>
</g>
<defs>
<clipPath id="clip0_1_4076">
<rect width="645" height="545" fill="white"/>
</clipPath>
</defs>
</svg>
